<?xml version="1.0" encoding="utf-8"?>
<!-- Generator: Adobe Illustrator 19.0.0, SVG Export Plug-In . SVG Version: 6.00 Build 0)  -->
<svg version="1.1" xmlns="http://www.w3.org/2000/svg" xmlns:xlink="http://www.w3.org/1999/xlink" x="0px" y="0px"
	 viewBox="0 0 255.1 170.2" enable-background="new 0 0 255.1 170.2" xml:space="preserve">
<g id="Layer_1" display="none">
	<g display="inline">
		<path fill="#FDFDFD" stroke="#767676" stroke-miterlimit="10" d="M1,170.4c-0.4,0-0.8,0.2-0.7-0.6c0.1-2,0-4,0-6
			c0-28.3,0-56.6,0-84.8c1.1-0.5,2.3-0.2,3.3-0.8c1-0.3,2,0,2.9-0.5c0.3,0,0.6,0,0.9,0.1c0.3,0.9,0.6,0.1,0.8-0.1
			c0.2,0,0.4-0.1,0.6-0.2c0.3,0,0.7,0.7,0.7-0.2c1.1-0.1,2.1-0.3,3.1,0.1c0.2,0.1,0.4,0,0.6,0c1.7-0.8,3.5-1.2,5.4-1.3
			c0.3,0.4,0.6,0.5,1,0c0.2,0,0.5,0,0.7,0c1.5,0.2,2.9-0.3,4.4-0.3c0.7,0,1.4,0.1,2-0.5c0.6,0,1.3-0.1,1.9-0.1
			c1.4-0.3,3-0.1,4.4-0.6c1.5,0,3-0.3,4.5-0.3c2.3-0.1,4.7-0.2,7-0.6c2-0.3,4-0.7,6-0.6c2.4,0.1,4.8,0,7.2,0.1
			c1.2,0.1,2.5,0.2,3.8-0.2c1.3,0.1,2.4-0.7,3.7-0.7c0.9-0.1,1.7-0.1,2.6-0.2c1,0.1,2,0.2,2.9-0.2c0.4,0,0.8-0.1,1.2-0.1
			c0.4,0.3,0.8,0.3,1.2,0.3c2,0.2,4-0.2,6-0.5c0.8,0.1,1.7-0.1,2.5-0.2c2.5-0.3,5-0.7,7.5-0.7c3.4,0,6.9,0,10.1,1.4
			c0.2,0.1,0.5,0.1,0.8,0.2c1.9,0.4,3.7,1,5.8,1.8c-2.4,0.8-4.6,1.2-6.8,1.3c-2.6,0.1-5.2,0.2-7.7,0.3c-0.2,0-0.4,0.1-0.4,0.3
			c0,0.3,0.2,0.2,0.4,0.2c2.6,0,5.2-0.1,7.7-0.6c0.4,0.1,0.8,0.4,1.1,0.3c3-0.4,6.1,0.1,9.1-0.7c0.5,0.3,1,0.3,1.5,0
			c0.1-0.1,0.3-0.1,0.4-0.2c0.3,0.2,0.5,0.1,0.6-0.1c2.9-0.3,5.9-0.6,8.8-0.9c5-0.5,10-1,15.1-1.1c0.3,0,0.8,0.1,0.8-0.4
			c0-1.3,0.9-2.2,1.2-3.3c1-2.9,2.9-4.8,5.7-5.9c0.4,0,0.9,0,1.3,0c-1-1.1-2.2-1.8-3.5-2.4c-1.6-0.9-3.4-1.3-5.2-1.6
			c-0.3-0.1-0.5-0.1-0.8,0c-2.8-0.7-9.3,0.7-10.3,2.1c0.7,0.1,1.3-0.2,1.8-0.4c2-0.8,4.2-1,6.3-1.3c0.3,0,0.9-0.1,0.9,0
			c0.4,0.9,0.8,0.2,1.2,0.1c0.3,0.3,0.6,0.2,0.9,0.1c1.9,0,3.5,1,5.2,1.5c0.4,0.5,1.3,0.5,1.4,1.4c-1.3,0.7-2.8,1.3-3.7,2.2
			c-1.7,1.7-3,3.9-3.2,6.5c-0.1,0.7-0.4,1-0.9,0.9c-1.9-0.4-3.7,0.2-5.5,0.2c-3.1,0.1-6.2,0-9.2,0.5c-2.6,0.4-5.1,0.7-7.7,1
			c-1.1,0.1-2.1-0.6-3.1-0.6c-3.9-0.2-7.6-1.3-11.2-2.6c-1.1-0.4-2.2-0.7-3.4-0.6c-1.2,0.1-2.4-0.2-3.3-0.7c0.1-1.7,0.2-3.3,0.2-5
			c0-3,0-3.1,2.9-4.1c0.3-0.1,0.6-0.2,0.9-0.3c6.1-1.3,12.2-2.6,18.4-2.9c1.1-0.1,2.3-0.3,3.4-0.5c0,0,0.1,0,0.1,0l0.1-0.1
			c3.1-0.6,6.2-0.7,9.3-0.8c6.4-0.3,12.8-0.8,19.2-1.1c2.9,0.2,5.8,0.4,8.7,0.2c2.6,0.2,5.3-0.1,7.9,0.2c2.6,0.2,5.3,0.3,7.9,0.3
			c0.7,0,1.4,0,2.1,0c0.1,0,0.2,0,0.2,0c0.3,0,0.6,0,0.9,0.1c2.9,0.6,5.9,1.1,8.9,1.5c2.9,0.4,5.7,0.8,8.6,1.2c2.7,0.3,5.3,1.1,8,1
			c2.5-0.1,5,0.5,7.3,1.4c2.1,0.8,4.3,0.9,6.4,1.6c-3.1-1.2-6.2-2.5-9.6-3c-2.4-0.4-4.7-0.9-7.2-1c-2.2-0.1-4.4-0.6-6.6-0.9
			c-2.4-0.3-4.8-0.7-7.2-1c-1.4-0.2-2.8-0.2-4.3-0.6c-1.4-0.4-2.9-1-4.4-0.5c-0.3,0-0.5-0.1-0.8-0.1c-0.1,0-0.2,0-0.3,0
			c-0.7-0.2-1.4-0.2-2.1-0.1c-0.6-0.1-1.2-0.3-1.9-0.3c-2.2-0.1-4.4-0.4-6.6-0.1c-2.5-0.1-5-0.2-7.4,0c-2.9-0.4-5.7-0.3-8.6-0.2
			c-1.9,0.2-3.8,0-5.7,0.1c-2.6,0.1-5.2,0.5-7.8,0.5c-2.4,0-4.7,0.3-7,0.4c-2.7,0.2-5.4,0.3-8.1,0.8c-0.3-0.2-0.5-0.1-0.7,0.1
			c-4,0.3-8,0.4-11.9,1.2c-2.1,0.4-4.2,0.6-6.3,0.7c0.3-0.7,1.3-0.4,1.8-1.2c-1.4,0.1-2.9,0.3-4.1,0.7c-2,0.7-4.1,0.4-6,1.4
			c-0.5,0.3-1.2,0.3-1.8,0.5c0-0.1,0-0.1,0-0.2c0.4-0.3,1.2-0.4,0.9-1c-0.2-0.6-0.8-0.1-1.2-0.1c-1.1,0.1-2.3,0.5-2.6-1.2
			c0-0.2-0.2-0.3-0.3-0.3c-1.7-0.2-1-0.9-0.3-1.5c-0.1-0.1-0.2-0.2-0.2-0.2C84,55.1,83,55.7,82.9,55c-0.1-0.7,1-0.9,1.6-1.2
			c0.1-0.1,0.3-0.1,0.4-0.2c0.5-0.3,1.3-0.3,1.4-1.1c2.9-1.3,6-2.1,9-3c4.6-1.3,9.1-2.7,13.8-3.3c7.3-0.9,14.5-2.8,21.9-3.6
			c4.7-0.5,9.2-1.5,13.9-1.8c0.2,0.1,0.3,0,0.5-0.1c0.7-0.1,1.4-0.2,2.1-0.2c0.3,0.1,0.5,0.1,0.8-0.1c3.5-0.3,7.1-0.4,10.6-1
			c3.8,0,7.7-0.1,11.5-0.1c4.3,0.2,8.6,0.2,12.8,0.5c2.3,0.1,4.7,0.5,7-0.1c2.5,1.1,5.3,0.3,7.9,1c0.5,0.1,1,0.3,1.5,0.1
			c0.6,0.1,1.2,0.1,1.7,0.2c0.6,0.4,1.3,0.2,1.9,0.2c4.4,0.9,8.9,1,13.4,2.1c-0.1-0.8-0.6-0.8-1-0.9c-2.4-0.6-4.8-0.9-7.2-1.1
			c-1.8-0.2-3.5-0.8-5.3-0.6c-0.1,0-0.3-0.1-0.4-0.1c-0.2-0.3-0.5-0.3-0.8-0.2c-0.1,0-0.2,0-0.3,0c-1.2-0.1-1.9-0.4-0.8-1.8
			c-1.1,0.1-1,0.9-1.2,1.4c-1.1-0.1-2.3,0.3-3.2-0.7c-1-1.2-2.4-1.4-3.8-1.8c-0.7-0.2-1.5-0.2-2.2-0.5c-3.2-1.3-6.5-2.6-9.7-4
			c-0.6-0.3-1.2-0.5-1.8-0.6c-0.2-0.2-0.3-0.3-0.6-0.1c-0.3-0.2-0.5-0.3-0.9-0.3c-0.7-0.3-1.3-0.6-2-0.9c-2.1-0.8-4.2-1.3-6.4-1.6
			c-0.3,0-0.6,0-0.8,0.2c-0.9-0.3-1.9,0.1-2.8,0c-1.6-0.2-3.1-1-4.7-1.1c-1.1,0.3-2.2-0.4-3.2,0.2c1.2,0,2.2,0.9,3.5,0.6
			c0.4-0.1,0.6,0.3,0.9,0.4c2.3,0.6,4.8,0.6,7.1,1.2c0.3,0.4,0.3,0.9,0.4,1.3c0.1,1.3,0.3,2.7,0.4,4c-0.6,0.5,0.1,1,0.1,1.5
			c0.6-1.2,0.7-2.5,0.6-3.8c0-0.5,0.2-1.1-0.4-1.5c0-0.3,0-0.6,0-0.9c0.3-0.3,0.7-0.5,1-0.8c0.5-0.5,1.1-0.3,1.5,0
			c1.2,0.9,2.5,1.2,3.9,1.4c0.2,0.1,0.4,0.1,0.6,0.2c5.5,2.8,11.4,4.7,17.3,6.6c0.2,0.1,0.5,0.1,0.4,0.4c-0.1,0.4-0.4,0.3-0.6,0.3
			c-2.6,0-5.2-0.3-7.7-0.4c-5.6-0.2-11.1-0.4-16.7-0.5c-1.2-0.1-2.4-0.1-3.6-0.2c-2.5-0.1-5,0-7.4,0.2c-1.8,0.1-3.6,0.2-5.3,0.4
			c-0.7,0.1-1.2-0.1-1.1-0.9c0.5-0.9,0.6-1.8,0.6-2.7c-0.1-1.7-0.6-3.4,0-5c0.2-0.6-0.3-0.6-0.6-0.7c-0.5-0.2-0.4,0.3-0.4,0.5
			c-0.1,0.9-0.1,1.8,0.1,2.7c-0.1,0.9-0.1,1.9-0.2,2.8c-0.5-0.2-0.7-0.1-0.7,0.5c0,1,0,1.9,0,2.9c-0.9,0.4-1.8,0.5-2.8,0.6
			c-0.5,0-1.2-0.3-1.5,0.4c-0.4-0.4-0.9-0.2-1.4-0.2c-0.5-0.1-1-0.2-1.5,0.2c-2.4,0.1-4.7,0.4-7.1,0.7c-3,0.4-5.9,0.6-8.9,1.1
			c-4.8,0.8-9.5,1.8-14.3,2.8c-3,0.6-6.1,0.7-9.1,1.4c-3.3,0.8-6.5,1.5-9.8,2.3c-2.7,0.7-5.3,1.7-8,2.5c-1.7,0.5-3.3,1.3-5.2,1.4
			c-0.9,0-2,0.7-2.6,1.7c-1,1.6-2,3.3-4.2,3.5c-0.7,0.1-1.5,0.3-2.2,0.4c-0.6-0.2-1.3-0.4-1.9,0.1c-0.3-0.2-0.7-0.1-1-0.1
			c-0.8,0-1.6,0-2.4,0.2c-1.3,0.1-2.6,0.3-3.9,0.1c-0.4-0.8,0.4-1.3,0.4-2.1c-0.2-3,0.2-5.9,0-8.9c-0.4-4.6,0-9.2-0.1-13.7
			c0-1.7,0.2-3.4,0-5.1c-0.2-1.9-0.3-3.8-0.4-5.7c-0.1-1.8,0-3.7,0-5.5c-0.2,0-0.4,0-0.6,0c0.6,1.3,0.1,2.5,0.2,3.8
			c0.3,2.2,0.2,4.5,0.2,6.7c0,3.9,0.1,7.9-0.1,11.8c-0.1,3.4,0.2,6.8,0.1,10.2c-0.1,2.9-0.4,5.7-0.6,8.6c-3.2,0.3-6.3,0.6-9.5,0.7
			c-0.5-0.1-1,0-1.4,0.3c-1.4,0.6-2.9,0.2-4.3,0.6c-1.5,0.4-1.6,0.1-1.4-1.4c0.1-0.4,0.1-0.9,0.1-1.3c0.2-6.5,0.2-13.1,0.5-19.6
			c0.1-2.7,0.2-5.4,0.2-8.1c0-2.2,0.1-4.4-0.2-6.6c-0.3-1.9-0.1-3.9-0.4-5.8c-0.2-1.5,0.5-2,1.8-2.1c0.4,0.3,0.8,0.2,1.3,0.1
			c1.3-0.3,2.7-0.2,4-0.4c0,0,0,0,0,0.1c0,0,0-0.1,0.1-0.2c-1.9,0-3.7,0-5.5,0c0.7-1.1,1.9-1.4,3-1.9c0.8-0.4,1.7-0.5,1.9-1.7
			c0.1-0.1,0.4-0.2,0.4-0.2c0-0.3,0.9-0.4,0.3-0.9c-0.4-0.4-0.6,0-0.9,0.3c-0.3,0.3-0.7,0.5-1,0.7c-0.6,0.1-1.3,0.2-1.9,0.3
			c-1.7-0.1-3-0.9-4.1-2.2c-0.2-0.3-0.4-0.6-0.8-0.6c-0.1-0.1-0.2-0.2-0.3-0.2c0.1-0.3-0.1-0.5-0.4-0.5C42.3,6,40.5,4,38.6,2
			c-0.1-0.8-1.3-0.8-1.2-1.8c13.3,0,26.6,0,39.8,0c-0.1,1.1-0.7,1.4-1.7,1.2c-0.5-0.1-1-0.3-1.5,0c-1,0.6-2.1,0.8-3.5,1.3
			c0.6,0,1.1-0.4,1.2,0.2c0.1,0.5-0.4,0.5-0.8,0.6c-0.5,0.1-0.9,0.4-1.4,0.4c-0.7,0-1.2,0-1.6,0.7c-0.1,0-0.2,0.1-0.3,0.1
			c0,0,0.1,0.1,0.1,0.1c0.1-0.1,0.2-0.1,0.3-0.2c1.4-0.3,2.7-0.7,4.1-1c0,0.5-0.3,0.6-0.5,0.9c-0.5,0.6-1.2,1.1-1.4,1.9
			c0.7-0.4,1.3-1,1.7-1.7c0.7-0.6,1.7-1,1.4-2.3c-0.1-0.3,0.3-0.4,0.6-0.4c1.2,0.2,2.3,0.1,3.5-0.3c1-0.3,1.2-0.6,1.2-1.5
			c18.5,0,37,0,55.4,0c-0.2,1.2,0.6,1.3,1.4,1.4c0.3,0.6,0.2,1.5,0.4,1.8c0.9,0.9,1.5,2.2,2.9,2.5c1.3,0.5,2.2,1.7,3.5,2.1
			c0.2,0.3,0.7,0.3,0.9,0.8c0.1,0.4,0.5,0.4,0.9,0.1c0.2,0.2,0.4,0.3,0.7,0.5c0.2,0.5,0.7,0.7,1.1,1c1,0.9,2.4,1.2,3.2,2.2
			c0.2,0.3,0.8,0.5,0.5,0.9c-0.2,0.3-0.7,0.4-1,0.4c-0.7,0.2-1.5-0.1-2.1,0.4c1,0,2.1,0.3,3-0.1c0.8-0.4,1.1-0.5,1.1,0.6
			c0,0.2,0.1,0.4,0.2,0.7c0.1,0.1,0.1,0.3,0.2,0.4c0.5,4.4-0.2,8.8,0,13.2c0.2,0,0.4,0,0.6,0c0-2.1,0-4.2,0-6.3c0-0.5-0.1-1,0.1-1.4
			c0.5-0.8,0.4-1.6,0.3-2.4c-0.4-1.2-0.1-2.5-0.3-3.7c0.3-0.6,0-1.1-0.1-1.6c-0.1-0.3-0.6,0-0.7-0.6c-0.2-0.9-0.3-2.1-1.8-1.9
			c-0.4,0-0.6-0.4-0.8-0.6c-0.8-0.8-1.3-1.7-2.3-2.3c-3.3-2-6.5-4.1-9.6-6.3c-0.3-0.2-0.6-0.3-1-0.3c-0.2-0.5-0.6-0.9-0.5-1.5
			c39.7,0,79.5,0,119.2,0c0.8,0,1.1,0.1,1.1,1c0,25.2,0,50.4,0,75.6c-1.2-0.4-2.4-0.8-3.6-1.1c-1.5-0.4-2.8-1.5-4.4-1.2
			c0,0-0.1,0-0.1-0.1c0,0,0,0.1,0,0.1c1.4,0.5,2.6,1.4,4.1,1.7c1.4,0.3,2.8,0.8,4.1,1.3c0,12.2,0,24.5,0,36.7
			c-1.6,0.2-3-0.6-4.6-0.6c1.5,0.7,3.1,0.8,4.6,1.3c0,11.2,0,22.4,0,33.6c-0.3-0.3-0.4,0-0.5,0.1c-1.4,1-2.8,2.2-4.5,2.7
			c-4.5,1.2-9.1,1-13.6,0.9c0-0.6,0.6-0.6,0.9-1c0.4-0.5,1.1-0.9,1-1.8c1.3-0.5,1.6-1.8,2.3-2.7c0.5-0.6,1.1-1.2,1.3-2
			c0.8-0.6,1.3-1.5,1.7-2.4c1.1-2.4,2.2-4.8,3.1-7.4c0.3-0.9,0.4-1.8,0.3-2.7c0.6-1.1,0.4-2.3,0.7-3.4c0.6-2.4,1-4.7,0.4-7.1
			c-0.7-3.4-1.5-6.6-4.7-8.6c-1.8-1.1-3.6-2.2-5.9-2.3c-1.4,0-2.8-0.2-4,0.4c-1.6,0.7-3.1,1.4-4.6,2.2c-2,1.1-3.9,2.1-5.4,3.9
			c-0.3,0-0.4,0.2-0.4,0.4c-1.9,1.8-3,4-4.1,6.2c-1.1,2-1.6,4.1-2.1,6.3c-0.3,0.9-0.7,1.8-0.5,2.7c-0.7,0.7-0.4,1.7-0.4,2.5
			c-0.6,6.1,1.4,11.3,4.9,16.2c-0.4,0.1-0.7,0.3-1,0.3c-3.1,0-6,0.7-9,1.6c-2.9,0.9-5.7,1.9-7.6,4.4c-0.2,0.3-0.5,0.6-0.9,0.5
			c-0.4-0.2-0.3-0.6-0.3-0.9c0.1-0.9-0.1-1.8-0.9-2.3c-1.6-0.9-3-2.1-4.8-2.5c-0.8-0.2-1.6-0.5-2.4-1.2c3.6-0.3,6.3-2.1,8.8-4.1
			c3.4-2.7,6.6-5.6,7.4-10.2c0.7-4.2-0.4-7.8-3.4-10.7c-1.8-1.7-3.9-3.1-6.6-3.6c0.8-1.3,1.5-2.5,2.3-3.7c0.3-0.5,0.7-0.8,1.3-0.9
			c2.9-0.3,5.8-0.6,8.6-1.4c2.9-0.9,5.7-2,7.8-4.4c0.8-0.9,1.6-1.9,1.1-3.3c-0.7-1.8-1.4-3.7-2.1-5.5c-0.2-0.4-0.4-0.9-0.9-0.9
			c-0.4,0-0.6,0.4-0.7,0.8c-1.4,3.1-3.8,5.2-6.7,6.9c-3,1.8-6.3,2.4-9.7,2.8c-0.7,0.1-1.9,0-2.1,0.5c-0.6,1.4-1.7,2.2-2.6,3.3
			c-2.4,2.9-4.3,6.1-6.8,8.9c-0.6,0.6-0.9,1.4-0.6,2.1c0.3,0.6,1.1,0.3,1.7,0.2c3.8-0.2,7.6-1,11.2,0.9c1,0.5,1.5,1.1,1.7,2
			c0.2,1-0.1,1.9-0.5,2.8c-1.6,3.1-3.6,5.8-6.3,8c-2.6,2-5.4,3.5-8.6,4.1c-1.5,0.3-3-0.1-4.2-1.2c-0.9-0.8-1.6-1.8-2.3-2.7
			c-0.2-0.2-0.3-0.7-0.7-0.3c-1.9,1.6-3.7,3.1-4.4,5.6c-0.1,0.5-0.1,0.8,0.3,1.1c0.9,0.9,1.9,1.7,3,2.5c-1.1,0.3-2.1,0.5-3.1,0.5
			c-3,0-5.9-0.1-8.9,0c-2.8,0.1-5.5-0.4-8.3-0.8c-2-0.3-2-0.5-1.4-2.4c0,0,0.1-0.1,0.1-0.1c0.1-1.5,0.8-3-0.5-4.3
			c-0.6-0.6-1-1.2-0.6-2c0.5-0.8,0.8-1.8,2.1-1.9c2.8-0.2,5.5-0.7,8.3-1.2c1.3-0.2,2.8-0.6,3.6-1.7c0.7-0.9,1.5-1.2,2.5-1.3
			c2.1-0.2,3.1-2.4,2.1-4.3c-0.3-0.6-0.8-0.9-1.5-0.9c-1.1,0-2.2,0-3.2,0c-1.3,0-2.4-0.5-3.5-0.9c-0.9-0.3-0.5-3.7,0.4-4.2
			c1.6-1,2.1-2.5,2.1-4.2c0-1.1-0.5-1.6-1.5-1.5c-1.2,0.1-2.4,0-3.6-0.2c-0.4-0.1-0.7,0-0.9,0.4c-0.4,0.7-0.5,3.7,0.1,4.2
			c1.7,1.5,1,3.3,0.5,5c-0.3,1.2-1.5,0.7-2.3,0.7c-0.9,0-0.6-0.7-0.6-1.2c0-1.8,0-3.5,0-5.3c0-1.2-0.1-2.5-1.1-3.4
			c-1.1-1-1.5-2.3-1.5-3.8c0-2.4,0.1-4.7,0.2-7.1c0-2.3-0.4-2.7-2.5-3.4c-0.9-0.3-1.2,0.1-1.1,0.8c0.2,3.2-1,6.2-1.1,9.4
			c0,1.4-0.3,2.7-1.5,3.8c-0.4,0.3-0.6,0.9-0.7,1.5c-0.6,2.6-1.1,5.3-1,8c0,0.7-0.2,1.1-0.8,1.2c-0.6,0.1-1.3,0.1-1.4-0.5
			c-0.2-0.9-0.5-2.1,0.4-2.7c1.9-1.5,1.6-3.7,1.9-5.8c0.1-0.7-0.3-1-1-1c-1.4,0-2.8-0.2-4.2-0.4c-1-0.1-1.4,0.3-1.2,1.3
			c0.2,1,0.5,1.9,0.4,2.9c-0.1,1,0.3,1.8,1,2.6c0.6,0.6,0.8,2.9,0.4,3.6c-0.2,0.4-0.5,0.3-0.8,0.3c-1-0.1-2.1-0.1-3.1-0.3
			c-1-0.2-1.2,0.4-1.4,1c-0.2,0.8-0.1,1.7-0.2,2.5c-0.2,1.3,0.5,1.6,1.6,1.9c1.8,0.4,3.6,0.5,5.4,0.5c0.5,0,0.8,0.2,1,0.6
			c0.6,1.4-0.2,3.6-1.6,4.3c-1,0.5-1.6,1.4-1.7,2.4c-0.3,3.2-1.1,6.2-2,9.3c-0.3,0.9-0.5,2-1.2,2.9c-0.7-1.1-0.7-2.3-1-3.4
			c-0.9-4.4-2.3-8.6-4-12.7c-1.3-3.2-3.4-5.8-6.2-7.9c-2.1-1.6-4.7-2.2-7-3.5c-1.1-0.6-2.3-1-3.4-1.6c-1.9-1.3-2-3.2-1.7-5.3
			c0.1-1.2,0.7-1.8,1.7-1.9c1.8-0.1,2.6-1,2.6-3c0-1.3,0-2.6,0.7-3.6c1.5-2.3,1.7-4.8,1.6-7.4c-0.1-0.8,0.1-1.6,0.5-2.3
			c1.5-2.5,1.8-5.3,1.7-8.2c0-0.5-0.3-0.9-0.6-1.1c-0.4-0.2-0.6,0.1-0.9,0.4c-1.2,1-2.5,1.6-4.1,1.5c-1.8-0.1-3.7,0-5.5,0
			c-1.6,0-3,0.6-3.8,2c-1.2,2.1-1.9,4.4-2.7,6.7c-0.4,1.1-0.1,2.4-0.9,3.5c-1.5,1.8-1.4,3.9-0.2,5.8c1.2,2,1,3.9,0.1,5.9
			c-1.5,3.3-3.8,5.7-6.9,7.5c-1.8,1-3.5,2.2-4.9,3.7c-0.9,0.9-0.9,1.7-0.4,2.8c0.5,0.9,1.1,1.8,1.3,2.8c1.1,6.4,2.8,12.7,3.8,19.2
			c0.4,2.7,1.2,5.3,1.3,8.1c0.1,2.1,0.2,4.1,0.6,6.2c-0.3,0-0.6,0-1,0c-0.4-4.1-0.7-8.1-1.4-12.2c-0.6-3.4-1-6.9-1.9-10.2
			c-1.1-4.1-2.2-8.2-3.4-12.3c-1.3-4.5-4.1-7.3-8.7-8.3c-0.7-0.1-1.4-0.2-2-0.7c-2.6-2-4.7-6.3-3.1-9.8c0.9-2.1,2.2-3.9,3-6.1
			c0.5-1.3,0.4-1.7-1-1.9c-0.4-0.1-0.7-0.2-0.6-0.7c0.4-1.6,0.7-3.3,1.8-4.7c2.4-3.2,4.6-6.4,4.5-10.6c0-1.9-1.1-2.8-2.9-2.3
			c-0.8,0.2-1.7,0.5-2.6,0.4c-0.2,0-0.7,0.1-0.6-0.3c0.3-2.4-1.7-3.1-3.2-4c-1.2-0.7-2.3-0.6-3.5,0.1c-1,0.6-2,1.2-2.8,2
			c-0.6,0.6-1.3,0.9-2.2,0.8c-3.9-0.3-5.5,4.3-4.2,7.1c1.5,3.1,3,6.1,3,9.6c0,0.9,0,1.6-0.8,2.3c-1.8,1.7-2.1,3.3-0.7,5.4
			c1.2,1.8,1.1,3.8,1.1,5.8c0,2.2-1.1,3.6-2.9,4.5c-0.3,0.2-0.6,0.3-0.9,0.5c-2.9,1.6-6.1,2.1-9.2,3.1c-1.1,0.4-2.3,0.7-2.8,2
			c-0.7,1.7-1.4,3.3-2,5c-1.4,3.9-2.2,7.9-3,11.9c-0.6,2.9-0.9,5.9-1.3,8.8c-0.6,3.7-1,7.5-1.6,11.2c-0.1,0-0.2,0-0.3,0
			c0-0.7,0-1.4,0.1-2.2c0.6-4.4,0.9-8.7,1.6-13.1c0.7-4.3,1.5-8.6,2.3-12.9c0.6-3,1.8-5.7,2.6-8.6c0.3-1,0.3-1.8-0.9-2.4
			c-2-1-3.4-2.5-2.8-5c0.2-1.1-0.4-1.8-1-2.5c-0.7-0.8-0.9-1.7-0.9-2.7c0.1-3.2,0.1-6.4,0.1-9.6c0-0.9,0.6-1.2,1.3-1.4
			c0.2,3-0.1,5.9-0.3,8.8c-0.1,2.1-0.3,4.1,0.9,6c0.3,0.4,0.5,0.8,0.5,1.3c0.1,0.8,0.7,1.4,1.4,1.3c0.9-0.1,1-0.9,0.9-1.8
			c-0.6-5.4-0.9-10.7-1.1-16.1c0-0.6,0.1-1,0.6-1.5c1.8-1.7,3.6-3.4,5.5-5c1-0.9,0.9-1.3-0.2-2.1c-2.5-1.7-5.2-3-7.8-4.6
			c-1.4-0.9-3.1-0.8-4.5-1.6c-1.7-1-3.4-2-5.2-2.9c-0.6-0.3-1.1-0.4-1.6,0.2c-3.5,3.4-7.3,6.3-11,9.4c-0.8,0.6-0.7,0.9-0.1,1.5
			c1.9,1.6,3.7,3.3,5.7,4.7c0.6,0.4,0.8,0.8,0.5,1.6c-1,2.7-2,5.4-2.8,8.2c-0.5,2.1-0.8,4.2-1.6,6.2c-1,2.7-2.9,4.1-5.6,4.6
			c-0.5,0.1-0.9,0.3-1.3,0.6c-1.8,1.1-2.6,3-3.7,4.6c-3.5,5.5-5.4,11.7-7.9,17.6c-2.3,5.3-4.6,10.6-7,15.8
			C3.2,165.6,2.1,168,1,170.4z M66.8,10.1c-0.1,0.2-0.4,0.3-0.2,0.5c0.1,0.1,0.3,0,0.4-0.1c0.1-0.1,0.2-0.2,0.3-0.3
			c0.4-0.5,0.8-0.9,1.1-1.4c0.1-0.1,0.2-0.2,0.3-0.3c0.5-0.6,1.2-1.1,1.7-2.2c-1,0.5-1.5,1.2-1.9,1.8c-0.1,0.1-0.2,0.2-0.3,0.3
			c-0.4,0.4-1,0.7-1.1,1.4C67,9.9,66.9,10,66.8,10.1z M65.6,12c0.2-0.1,0.6-0.3,0.4-0.6c-0.2-0.2-0.4,0.1-0.5,0.3
			c-0.1,0.1-0.2,0.2-0.1,0.3C65.3,12.1,65.5,12,65.6,12z M64.7,12.4c-0.2,0.1-0.6,0.5-0.4,0.6c0.4,0.2,0.5-0.2,0.7-0.5
			c0-0.1,0-0.2,0-0.3C64.9,12.2,64.8,12.3,64.7,12.4z M155.5,89c-0.3-0.5-0.6-0.3-1,0c0.4,0,0.5,0.7,1,0.4c0.2,0,0.4,0.2,0.5-0.1
			C156.1,88.9,155.7,89.1,155.5,89z M227.5,89.7c0.6,0.2,1-0.4,1.5-0.6C228.4,89.2,227.9,89.3,227.5,89.7c-0.4,0-0.7,0.1-1,0.5
			c0.3,0,0.5,0,0.7-0.1C227.4,90.1,227.6,90,227.5,89.7z M122.9,61.9c-0.3,0.1-0.7,0.1-0.6,0.5c0.1,0.4,0.4,0,0.7,0
			c0.7,0.1,1.1-0.4,1.6-0.6c0.2-0.1,0.4-0.2,0.2-0.5c-0.1-0.2-0.3-0.2-0.5-0.1C123.8,61.5,123.3,61.7,122.9,61.9z M64.4,13.6
			c0-0.2,0.2-0.7-0.3-0.4c-0.5,0.2-1,0.5-1.3,1c0.6,0.3,1,0,1.4-0.1c0.3,0.1,0.6,0.2,0.9,0C65,13.7,64.7,13.6,64.4,13.6z
			 M221.5,78.2c1.2,0.1,2.3-0.4,3.4-0.8c0.3-0.1,1-0.2,0.8-0.6c-0.2-0.5-1-0.4-1.2-0.2C223.7,77.4,222.5,77.6,221.5,78.2
			c-0.1,0-0.2,0.1-0.3,0.1c0,0,0.1,0,0.1,0C221.4,78.3,221.5,78.3,221.5,78.2z M244.8,50.4c1.5,0.5,3.1,0.9,4.6,1.4
			c1.6,0.9,3.4,1.3,5.2,1.4c-0.2-0.3-0.4-0.6-0.6-0.7c-1.7-0.9-3.7-1.1-5.5-1.8c0,0-0.1,0.1-0.2,0.1c-1.2-0.2-2.3-0.9-3.5-0.6
			c-0.3-0.7-2.8-1.8-3.6-1.5c-0.1,0-0.2,0.1-0.2,0.2c-0.1,0.3,0.1,0.4,0.3,0.4C242.5,49.6,243.6,50.3,244.8,50.4z M25.2,106.5
			L25.2,106.5c-2,0.3-3.8,1-5.7,1.6c2,0.1,3.9-0.4,5.8-1.1c2.1-0.2,4.2-0.8,6.2-1.3c0.6,0.2,1-0.2,1.7-0.4c-0.7-0.4-1.2-0.5-1.8-0.1
			c-1.9,0.4-3.8,0.8-5.7,1.2C25.4,106.1,25.2,106.2,25.2,106.5z M53.8,11.8c0.7,0.1,1.1-0.3,1.7-0.6c2.8-1.3,5.2-3.3,8.2-4.1
			c0.3-0.1,0.5-0.2,0.6-0.6C60.3,7.3,57.2,9.9,53.8,11.8c-0.2,0-0.3,0.1-0.4,0.1c0,0,0,0.1,0.1,0.1C53.6,12,53.7,12,53.8,11.8z
			 M235.2,104.2c0.1-0.8,0.1-1.6-0.6-2.2c0.1-0.6-0.3-1.1-0.4-1.7c0-0.1,0.1-0.2,0.1-0.3c-0.1-2.5-1.2-4.8-2.2-7
			c-0.6-1.5-1.2-3.1-1.2-4.6c-0.2,0.2-0.4,0.6-0.7-0.2c-0.5-1.5-1.2-2.9-2-4.2c-0.2,1.6,0.7,2.8,1.2,4.2c0.6,1.5,1.5,2.9,1.8,4.6
			c0.2,1.3,0.3,2.7,1.1,3.8c0,0.1,0.1,0.2,0.1,0.2c-0.1,0.1-0.1,0.1,0,0.2c0.1,0.7,0.3,1.4,0.7,2.1c0,0,0,0,0,0
			c-0.1,1.2,0.3,2.3,0.6,3.4c-0.2,0.5,0,1,0.2,1.5c-0.2,0.8,0.1,1.6,0.2,2.4c0,0.6,0,1.3,0.1,1.9c0,0.8,0.9,0.5,1.2,0.9
			c0.1,0.2,0.4,0.1,0.4-0.2c0.1-0.7,0.6-1.3-0.1-2C235.5,106.1,235.8,105.1,235.2,104.2z M112.7,73.4c0.5-0.3,0.7-0.9,1-1.4
			c1.1-1.8,2.8-3.2,4.1-4.8c1.2-1.5,1.9-3.4,3.9-4.2c0.2-0.1,0.2-0.2,0.1-0.4c-0.1-0.2-0.3-0.1-0.4,0c-0.6,0.4-1.2,0.7-1.7,1.2
			c-2.3,2.7-4.5,5.4-6.7,8.1C112.6,72.3,112.5,72.8,112.7,73.4c-0.1,0-0.1-0.3-0.2-0.1C112.5,73.3,112.6,73.4,112.7,73.4z
			 M126.5,127.2c0.2,0,0.5-0.1,0.7-0.1c4.9-1.6,9.6-3.8,14.3-5.7c3.5-1.4,6.6-3.5,10.2-4.7c0.4-0.1,1-0.2,1-0.8
			c-0.4-0.2-0.8,0-1.1,0.1c-4.3,1.8-8.2,4.3-12.5,5.9c-3.4,1.2-6.5,3.1-9.9,4.1C128.2,126.2,127.3,126.6,126.5,127.2
			c-0.7,0.1-1.4,0.4-2.2,1C125.3,128,126.1,128,126.5,127.2z M239,48.5c0.6,0.2,1.3,0.7,2.1,0.5c-0.7-0.6-1.4-0.8-2.1-0.9
			c-0.2-0.2-0.4-0.3-0.6-0.3c-2.9-0.5-5.8-1.4-8.7-2.2c-2.3-0.6-4.5-1.5-6.8-2c-1.8-0.4-3.5-0.9-5.4-1.1c-0.2,0-0.6-0.2-0.6,0.3
			c0,0.2,0.2,0.4,0.3,0.6c0.8-0.5,1.4,0.4,2.1,0.3c2.8,0,5.4,0.9,8,1.7C231.2,46.6,235.1,47.6,239,48.5z M168,90.7
			c-1.2-0.5-2.5-0.2-3.7-0.3c-0.2,0-0.4-0.1-0.6-0.1c-0.1-0.2-0.3-0.2-0.5,0c-2.4-0.2-4.6-1.1-7.1-1.1c0.2,0.6,0.8,0.3,0.9,0.9
			c-0.7,0.1-1.4,0.1-2.1,0c2.8,0.6,5.6,1,8.4,1.2c0.3,0.5,0.7,0.3,1.1,0.2c0.5,0.1,1,0.2,1.5,0.3c0.4,0.6,1.4,0.1,1.8,0.9
			c-0.6,0.3-1.3,0.3-1.7,1.2c0.6-0.3,1.2-0.4,1.6-0.6c1.4-0.6,3-0.4,4.2-1.5c0.2-0.1,0.5-0.2,0.7-0.3c1.5-0.3,3-0.7,4.7-1.1
			c-0.9-0.2-1.6,0.2-2.2,0.2c-0.5,0.1-1,0.1-1.3-0.4c0.1-0.5,0.2-1,0.4-1.5c2.7-7.3,6.9-13.7,13.1-18.7c3.4-2.7,7-4.7,11.2-5.5
			c1.4,0.8,2.8,0.7,4.1-0.1c0.1,0,0.3-0.1,0.4-0.1c0.8,0.2,1.6,0.5,2-0.5c0.2,0,0.3,0.1,0.5,0.1c0.5,0.6,1.1,0.2,1.7,0.2
			c0.3,0.1,0.6,0.1,0.9,0.2c0.8,0.1,1.4,0.9,2.2,0.6c0.8,0.5,1.6,0.9,2.4,1.4c0.4,0.2,1,0.4,1,0.8c0,0.5-0.7,0.3-1,0.6
			c-0.6,0.5-1.4,0.7-2.2,0.9c-0.4,0.1-0.7,0.4-0.9,0.7c-0.1,0.2-0.1,0.5,0.1,0.5c0.5-0.1,1-0.5,1.4-0.8c0.6-0.5,0.8,0.7,1.3,0.2
			c0.5-0.5,1.5-0.4,1.5-1.5c0-0.3,0.5-0.5,0.9-0.2c1,0.6,2.1,0.9,3,1.7c1.2,1,2.4,2,3.6,3.1c0.1-0.3,0-0.4-0.1-0.5
			c-1.5-1.9-3.5-3.1-5.2-4.8c-1.5-1.5-3.7-2.4-6-2.6c-1.8-1-3.7-1.5-5.7-1.4c-2.9,0.1-5.8,0.7-8.7,1.6c-4.7,1.4-9,3.5-12.5,7.1
			c-3.6,3.8-6.2,8.3-8.5,13c-1.1,2-2.5,3.9-3.2,6.1C170.3,90.8,169.1,90.7,168,90.7z M192.2,134.1c-0.2,0.2-0.4,0.4-0.7,0.4
			c-0.4-0.3-0.7,0-1,0.1c-3.3,1.2-6.5,2.9-9.7,4.4c-2.6,1.2-5.2,2.4-7.9,3.4c-1.9,0.7-3.7,1.4-5.4,2.5c-0.3,0.2-0.9,0.3-0.6,0.7
			c0.3,0.5,0.8,0,1-0.2c1.7-1.3,3.8-1.7,5.7-2.5c2.8-1.1,5.6-2.4,8.3-3.8c2.2-1.1,4.3-2.4,6.7-3c2-0.5,3.9-0.9,5.7-1.9
			c0.7-0.4,1.1-1.1,1.8-1.5c1.2-0.1,2.2-1,3.4-1.2c0.2,0,0.3-0.2,0.2-0.4c-0.1-0.1-0.2-0.3-0.4-0.2c-1.1,0.4-2.3,0.6-3.1,1.5
			c-1.1,0.6-2.4,0.8-3.5,1.3C192.4,133.8,192.3,134,192.2,134.1z M96.7,91.5c-0.8-0.2-1.5,0.1-2.3,0.3c-0.3,0.1-0.6,0.1-0.5,0.5
			c0.1,0.4,0.5,0.4,0.8,0.2c0.6-0.4,1.3-0.5,2-0.7c3.7,0.2,7.4-0.5,10.9-1.7c0.6-0.2,1.3-0.4,1.9-0.6c4.3-1.2,8.8-1.7,13.1-2.9
			c3.2-0.9,6.5-1.7,9.8-2.2c0.9-0.1,1.7-0.5,2.4-1.1c0.1-0.1,0.2-0.2,0.2-0.3c-0.1-0.3-0.3,0-0.4,0c-0.9,0.2-1.8,0.5-2.7,0.7
			c-2.7,0.6-5.5,0.9-8.2,1.8c-2.3,0.7-4.6,1.3-7,1.7c-2.9,0.5-5.9,1.1-8.7,1.9c-3.4,1-6.7,1.9-10.2,2C97.4,91.1,96.9,91,96.7,91.5z
			 M39.8,82.6c0.2,0.5,0.6,0.4,0.9,0.3c3.6-0.4,7.1-1.1,10.7-1.4c1-0.1,2-0.2,3-0.3c1.4-0.2,2.8-0.7,4.2-0.8
			c3.6-0.2,7.2-0.2,10.7-0.4c3.8-0.2,7.5-0.2,11.2-1.5c1.3-0.5,2.6-0.8,3.9-1c1.8-0.3,3.6-0.7,5.4-1c0.2,0,0.5,0,0.4-0.4
			c-0.1-0.2-0.2-0.2-0.4-0.2c-3,0.4-6,1-8.9,1.8c-1.4,0.4-2.9,0.9-4.4,1.1c-3.7,0.3-7.4,0.7-11.2,0.7c-4.1,0-8.2,0.5-12.2,1.2
			c-2.5,0.4-5,0.8-7.5,1.1C43.7,82.1,41.8,82.3,39.8,82.6z M229.7,41.6c0.7-0.1,1.1,0.3,1.6,0.5c1.8,1,3.8,1.8,5.8,2.4
			c4.6,1.4,9.2,3,13.9,4.5c0.8,0.2,1.7,0.5,2.7-0.3c-1.5-0.4-2.9-0.6-4.1-1.1c-4.7-2-9.5-3.3-14.3-4.9c-1.2-0.4-2.6-0.5-3.7-1.2
			C231,41.2,230.4,41.2,229.7,41.6z M144.6,63.4c0.5,1,1.4,1.6,1.9,2.5c1.3,2.2,2.5,4.5,3.4,6.9c1.5,3.8,2.6,7.7,3.3,11.7
			c0.2,1,0.2,2,0.4,3.1c0,0.3,0.1,0.7,0.6,0.7c0.2-0.5,0.1-1.1,0.1-1.6c-0.4-4-1.5-7.8-2.8-11.6c-1-3-2.5-5.8-3.9-8.6
			C147,65.1,145.8,64.2,144.6,63.4z M39.2,83.1c-1.9-0.4-27.2,2.6-27.7,3.2C20.8,85.8,30,84,39.2,83.1z M215.5,36.2
			c0.1-0.1,0.2-0.2,0.3-0.3c-0.1,0-0.2-0.1-0.3-0.1c-1.5-0.5-3-1.2-4.6-1.5c-0.9-0.2-1.8-0.7-2.7-0.9c-0.3-0.1-0.6-0.2-0.7,0.2
			c-0.1,0.3,0.1,0.4,0.3,0.5c0.3,0.2,0.5,0.3,0.8,0.5c1.8,0.8,3.7,1.3,5.4,2c2.3,1,4.6,1.8,6.8,3c0.6,0.3,1.3,0.5,1.9,0.7
			c0.2,0.1,0.4,0.1,0.5-0.1c0-0.1-0.1-0.4-0.2-0.4c-1-0.3-1.7-0.8-2.6-1.5c-0.8-0.6-2.2-1-3.5-1.1C216.4,37.1,216,36.5,215.5,36.2z
			 M135.5,83.1c5.1-1.4,10.3-2.5,15.5-3.7C149.1,79,136.5,82.1,135.5,83.1z M106.8,111.6c-0.1-0.6-0.4-0.4-0.7-0.3
			c-0.8,0.2-1.5,0.8-2.3,1.1c-1.6,0.5-3.1,1.1-4.6,1.7c-0.2,0.1-0.4,0.2-0.4,0.4c0,0.2,0.2,0.3,0.4,0.3c1.9-0.7,4.1-0.8,5.9-1.8
			C105.8,112.6,106.5,112.2,106.8,111.6z M207.3,39.5c0.3-0.5,0.3-0.9,0-1.4c-0.8-1.4-1.6-2.7-2.3-4.2c-0.3-0.6-0.6-0.5-1-0.2
			c-0.3,0.3-0.6,0.6-0.6,1.2c0.5-0.7,0.9-0.7,1.3,0C205.5,36.5,206.4,38,207.3,39.5z M86,119.2c2.5-1.1,5.3-1.4,7.7-2.9
			C91.1,117,88.5,117.9,86,119.2z M109.4,13.9c0,0.1,0,0.3,0,0.4c3.4,0,6.9,0,10.1,0C116.3,13.8,112.8,14.2,109.4,13.9z M137.5,14.2
			c-3.1,0-6.3,0-9.4,0C131.3,14.3,134.4,14.8,137.5,14.2z M159.9,148.5c1.4-0.1,2.5-0.8,3.6-1.4c0.1-0.1,0.2-0.3,0.1-0.4
			c-0.2-0.2-0.4-0.1-0.6,0C162,147.3,161,147.9,159.9,148.5z M231.1,69.1c-1.3-0.6-2.7-1.2-4.2-1C228.3,68.4,229.7,68.7,231.1,69.1z
			 M155,28c-0.1-0.4-0.3-0.7-0.8-0.8c-0.5,0-1.1-0.2-1.6-0.3c-0.3-0.1-0.5-0.5-0.7,0c-0.1,0.4,0.2,0.5,0.5,0.6
			C153.3,27.9,154.2,27.9,155,28z M125.4,14.5c0-0.1,0-0.1,0-0.2c-1.3,0-2.7,0-4,0c0,0.1,0,0.1,0,0.2
			C122.7,14.5,124.1,14.5,125.4,14.5z M237.7,71.3c1.5,0.4,2.9,0.9,4.4,1.3C240.7,71.8,239.2,71.6,237.7,71.3z M202.2,79.6
			c-0.7,0.6-1.4,1.2-1.6,2.3C201.4,81.2,201.9,80.5,202.2,79.6z M66.8,96.8c-1-0.4-2-0.2-2.8,0.4C65,97.1,65.9,96.8,66.8,96.8z
			 M235.1,70.3c-1.2-0.7-2.3-0.9-3.3-1.1C232.8,69.8,233.8,70.1,235.1,70.3z M209.9,66.8c0.3,0,0.8,0.1,0.7-0.2
			c-0.2-0.5-0.8-0.6-1.3-0.9c-0.2-0.1-0.6-0.1-0.6,0.2C208.9,66.7,209.5,66.6,209.9,66.8z M55.8,9.1C56.5,9,57,9,57.5,8.9
			c0.2,0,0.3-0.2,0.3-0.4c0-0.3-0.3-0.3-0.4-0.2C56.9,8.4,56.4,8.5,55.8,9.1z M228.4,42.2c0.1,0,0.1-0.1,0.2-0.1
			c-0.3-0.2-0.5-0.4-0.8-0.6c-0.3-0.2-0.7-0.3-0.8,0c-0.2,0.5,0.3,0.4,0.6,0.5C227.8,42.1,228.1,42.2,228.4,42.2z M161.5,95.9
			c-0.9-0.2-1.4,0-2,0.5C160.2,96.4,160.8,96.2,161.5,95.9z M183.4,88.8c-0.5-0.9-0.5-0.9-1.7,0C182.3,88.8,182.9,88.8,183.4,88.8z
			 M208.3,65.5c-0.5-0.1-1-0.7-1.6-0.3c-0.1,0-0.1,0.3,0,0.3C207.2,66,207.8,65.8,208.3,65.5z M218.5,79.1c0.9,0,1.5-0.1,2.2-0.6
			C219.9,78.5,219.3,78.8,218.5,79.1z M185.2,88c0.7,0.1,1.2,0.3,1.6-0.1C186.3,87.5,185.9,87.6,185.2,88z"/>
		<path fill="#FDFDFD" stroke="#767676" stroke-miterlimit="10" d="M0.2,64.1c0-17.8,0-35.5,0-53.3c0.4-0.1,0.7,0,1.1-0.3
			c2.6-1.8,4.8-3.9,7.5-5.4c1.6-0.9,2.8-2.3,4.3-3.2c0.6-0.4,1.2-0.9,1.4-1.6c7.4,0,14.7,0,22.1,0c0.1,1.4,0.8,2.4,2.1,2.9
			c1.5,1.7,3,3.5,4.5,5.2c1.2,1.5,2.5,2.9,3.3,4.6c0.2,0.5,0.4,1.1-0.3,1.3c-1.2,0.3-1.2,1.1-1.1,2.1c0.1,0.5-0.1,1-0.2,1.5
			c-0.2,1-0.4,1.9-0.2,2.9c-0.3,2.3-0.9,4.6-0.7,7c0.3,3.9,0.2,7.9-0.1,11.8c-0.2,2.7-0.5,5.4-0.4,8c0.1,3.4,0,6.7-0.3,10
			c-0.1,0.8,0.6,1.6,0.1,2.3c-0.5,0.7-1.5,0.1-2.2,0.6c-0.7,0-1.4,0-2.1,0c-0.2-0.3-0.4-0.3-0.5,0c-0.2,0-0.4,0-0.6,0
			c-0.2-0.3-0.4-0.3-0.6-0.1c-0.1,0-0.3,0.1-0.4,0.1c-0.9-0.4-1.7-0.1-2.5,0.4c-0.4,0-0.8,0-1.1-0.1c-0.2-0.2-0.5-0.2-0.7,0
			c-0.4,0.1-0.8,0.1-1.2,0.2c-2.1-0.2-4.1,0.7-6.2,0.2c-0.1,0-0.2,0-0.2,0.1c-0.6,0.2-1.2,0.5-1.8,0.7c-0.1-0.3-0.3-0.3-0.5-0.2
			c-1.5,0.6-3.1,0.3-4.5,0.7c-2.7,0.7-5.4,0.7-8.2,0.7c-1.1,0-2.2,0.1-3.3,0.5c-0.4-0.2-0.9-0.3-1.3,0c-0.7-0.1-1.4,0-2.1,0.3
			C2.4,63.9,1.3,64.6,0.2,64.1z"/>
		<path fill="#FDFDFD" stroke="#767676" stroke-miterlimit="10" d="M0.2,77.8c0-2.1,0-4.2,0-6.2C2,70.9,3.8,71,5.6,70.8
			c2.6-0.2,5.2-0.3,7.7-1.3c1-0.4,2.2-0.7,3.3-0.2c-0.3-0.1-0.5,0-0.7,0.2c0.5,0.4,0.9,0.3,1.3,0.3c0.7-0.1,1-0.5,1.4-0.9
			c0.8-0.8,1.8-0.1,2.8-0.3c0.5-0.1,1.1-0.3,1.6,0.2c0.2,0.2,0.5,0.1,0.8,0c1.1-0.6,2.5-0.5,3.6-0.6c1.5-0.2,3.1-0.3,4.7-0.5
			c0.9-0.1,1.9-0.3,2.8-0.4c3.1-0.6,6.3-0.4,9.3-1.2c0.3,0.1,0.6,0.1,0.9-0.2c1.1-0.1,2.3-0.2,3.4-0.2c2.6,0.1,5.2-0.6,7.8-1
			c0.8,0.1,1.7,0.2,2.5-0.2c1.8,0,3.6,0,5.4,0c0.7,0.6,1.4,0.4,2.2,0.1c0.6,0,1.1-0.1,1.7-0.1c0.1,0.1,0.2,0.2,0.4,0
			c0.7,0.1,1.4,0.3,2.1,0.3c3-0.1,6-0.3,9.1-0.6c1.4-0.1,2.8,0.5,4.1-0.1c2.3-0.9,4.8-0.8,7.1-1.8c-0.1,1.7-0.2,3.4-0.2,5
			c-1.5-0.5-2.1,1-3.2,1.4c1.2,0.1,2-0.9,3.1-0.8c0.1,0.6-0.3,0.9-0.8,1.1c-0.8,0.3-1.7,0.5-2.5,0.4c-0.1-0.3-0.2-0.4-0.5-0.1
			c-0.2,0-0.3,0-0.5,0c-0.2-0.2-0.4-0.2-0.7-0.1c-3.4,1-7,0.2-10.4,1.6c-0.3,0.1-0.8,0-1.2,0c-0.7,0.1-1.5-0.4-2.2,0.3
			c-0.5-0.1-1,0-1.4,0.2c-0.9-0.1-1.9-0.5-2.7,0.3c-0.3,0-0.6,0-1-0.1c-0.7-0.1-1.4-0.7-2.1,0.4c-0.6,0.8-2.2,0.3-3.2,1
			c-3.2-0.1-6.4-0.6-9.7-0.4c-2.4,0.1-4.9,0.7-7.3,0.5c-1.6-0.5-3.2-0.2-4.8-0.1c-0.5-0.1-0.7,0.5-1.2,0.5c-0.7-0.5-1.3,0-1.9,0.1
			c-2.6,0.3-5.3-0.3-7.8,0.9c-0.2,0.1-0.4,0-0.6,0c-1.7-0.6-3.2,0-4.8,0.3c-0.8,0-1.6,0.1-2.3,0.1c-0.4-0.1-0.9-0.1-1.3,0.2
			c-0.2,0-0.4,0-0.6,0c-3.2,1.1-6.6,1.6-10,1.9c-0.1,0-0.2,0-0.3,0c-0.6,0-1.2,0-1.8,0c-1.6,0-3.1,0.7-4.7,0.4
			C1.8,77,1.9,77.6,1.9,78c-0.2,0-0.3,0.1-0.5,0.1c-0.1-0.2,0-0.6-0.3-0.6c-0.3,0-0.3,0.3-0.4,0.6C0.5,77.9,0.4,77.8,0.2,77.8z"/>
		<path fill="#FDFDFD" stroke="#767676" stroke-miterlimit="10" d="M0.2,70.3c0-1.8,0-3.5,0-5.3c1.2,0.2,2.2-0.4,3.3-0.5
			c0.7,0,1.5-0.1,2.2-0.3c0.3,0.1,0.7,0.2,1,0c1.4,0.4,2.7-0.1,4-0.2c1.8-0.1,3.7-0.3,5.5,0c1.2,0.2,2.2,0.5,3.2-0.5
			c-0.2,0.4-0.2,0.7,0.2,0.9c0.5,0.2,1,0,1.3-0.5c0.3,0,0.5-0.1,0.5-0.4c0.3,0,0.6,0,0.9-0.1c0.4,0.3,0.7,0.7,1.2,0.6
			c1.5-0.4,3-0.7,4.6-0.7c0.8,0,2,0.6,2.2,0.3c1-1.4,2.4-0.6,3.5-1c1.2-0.5,2.3-0.3,3.4,0.1c0.1,0,0.2,0.1,0.2,0.1
			c1.7-0.6,3.5-0.6,5.3-0.6c0.4,0,0.4-0.8,1.1-0.4c0.8,0.5,1-0.1,1-0.8c2.4,0,4.8-0.5,7.2-0.9c0.5,0.2,1,0.1,1.5-0.1
			c1.2-0.1,2.3,0.2,3.5-0.3c0.1,0.5,0.3,0.6,0.7,0.2c2.4-0.5,3.2-0.5,6.1,0.3c0.2,0.1,0.5,0,0.7-0.1c0.3-0.2,0.6-0.2,0.9-0.2
			c-0.6,0.2-1.3,0.2-2.1-0.4c1.5-0.4,2.9-0.4,4.2-0.3c2.1,0.1,4.2-0.1,6.3-0.5c1.4-0.3,2.8-0.8,4.2-0.5c2.4,0.6,4.6,1.6,7.1,1.6
			c0.2,0,0.4,0.1,0.4,0.4c0,0.2-0.2,0.3-0.4,0.3c-0.6,0.3-1.2,0.5-1.9,0.8c-0.7,0-1.5-0.1-2.1,0.4c-1.1,0-2.2,0.2-3.4,0.3
			c-0.2-0.3-0.4-0.2-0.6,0.1c-0.3,0.1-0.7,0.2-1.1,0.1c-0.2-0.7-0.6-0.3-1-0.3c-1.5,0.1-2.9,0.7-4.4,0.8c-3,0.1-6.1,0-9.1-0.3
			c-0.6-0.1-1.3-0.2-1.9,0c-1.1,0.4-2.3,0.7-3.5,0.6c-0.3,0-0.4,0.3-0.3,0.6c-0.7,0-1.4,0-2,0.1c-1,0.1-1.9,0.7-2.9,0.5
			c-2-0.4-3.8,0.6-5.6,0.9c0.1-0.9,1.2-1.3,1.3-2.3c-1.4,0-2.9,0-4.3,0.3c0.3,0.8,0.7,1.3,1.5,1.2c0.4,0,0.9-0.2,0.9,0.3
			c0,0.5-0.6,0.1-0.9,0.3c-0.2,0-0.4,0-0.6,0.2c-0.4-0.1-0.7-1.1-1.2-0.5c-0.4,0.5-1.2,0-1.3,0.7c-0.3,0-0.5,0.1-0.8,0.1
			c0-0.2-0.1-0.3-0.3-0.2c-0.1,0-0.1,0.2-0.2,0.3c-0.3,0.1-0.5,0.2-0.8,0.2c-1.5,0.3-3-0.1-4.5,0.6c-0.6-0.9-1.6-0.1-2.2-0.6
			c-0.3,1.3-1.4,0.8-2.1,0.9c-2,0.3-3.9,0.7-5.9,0.8c-2.4,0.1-4.7,0.2-7,0.7c-4.2,0.2-8.3,1.4-12.5,1.7C3.1,70.2,1.7,70.5,0.2,70.3z
			 M6.4,64.9c-0.6-0.3-0.9,0.1-1.2,0.4c-0.1,0.1,0,0.3,0,0.3c0.4,0.3,0.8,0.2,1.2,0.1c0.2-0.1,0.5-0.1,0.7-0.1c0.2,0,0.5,0,0.5-0.4
			c0-0.3-0.3-0.3-0.5-0.4C6.9,64.8,6.6,64.8,6.4,64.9z"/>
		<path fill="#FDFDFD" stroke="#767676" stroke-miterlimit="10" d="M175.9,170.4c0.5-0.5,1.1-0.4,1.7-0.4c4.1,0.1,7.9-1.1,11.8-2.1
			c2.2-0.6,4.5-1.1,6.5-2.2c0.2-0.1,0.5-0.1,0.5,0c0.1,1.2,1.4,1.4,2,1.9c2.7,2.3,7.5,2.8,9.8-0.8c0.2-0.3,0.4-0.5,0.7-0.6
			c1.5-0.3,2.9-0.7,4.5-0.7c4.7,0,9.2,1,13.8,1.6c5.6,0.8,11.2,0.8,16.8,0.9c3.8,0.1,7.5-0.2,11.2-0.8c0,1,0.4,2.5-0.1,3
			c-0.5,0.5-2,0.1-3,0.1C226.8,170.4,201.4,170.4,175.9,170.4z"/>
		<path fill="#FDFDFD" stroke="#767676" stroke-miterlimit="10" d="M255.4,165.6c-1.8-0.1-3.6,0.3-5.3,0.6c-2.5,0.5-5,0.5-7.5,0.3
			c-2.6-0.2-5.1,0.2-7.6,0.1c-3.6-0.1-7-0.8-10.5-1.3c-4.5-0.8-9-1.6-13.7-0.9c-0.2,0-0.5,0.1-0.7,0.1c-0.6,0-0.8-0.5-0.9-0.8
			c-0.1-0.4,0.4-0.3,0.7-0.4c5.7-1.2,11.4-1.2,17.2-0.5c6.5,0.8,13.1,1.1,19.6,0.6c2.9-0.2,5.8-0.8,8.7-1.3
			C255.4,163.2,255.4,164.4,255.4,165.6z"/>
		<path fill="#FDFDFD" stroke="#767676" stroke-miterlimit="10" d="M255.4,161.5c-2.6,0-5.2,0.7-7.7,1c-2.7,0.3-5.3,0.5-8,0.4
			c-3.2-0.2-6.4,0-9.6-0.4c-3.3-0.4-6.6-0.8-10-0.9c-3.9-0.1-7.8-0.1-11.5,1.3c-0.2,0.1-0.4,0.1-0.6,0.1c-0.6-0.1-1.6,0-1.6-0.7
			c-0.1-0.6,0.8-0.3,1.3-0.3c2.7-0.5,5.4-1.1,8.1-1.8c3.6-0.8,7.3-1.3,11-0.9c2.5,0.3,5-0.1,7.5,0.3c6.5,1,13,1,19.5,0.5
			c0.5,0,1-0.3,1.5-0.2C255.4,160.4,255.4,161,255.4,161.5z"/>
		<path fill="#FDFDFD" stroke="#767676" stroke-miterlimit="10" d="M255.4,155.3c-0.1,0-0.2-0.1-0.3-0.1c-4.3,2-9,2-13.7,2.3
			c-5.2,0.3-10.4-0.4-15.7-0.7c-4.8-0.3-9.5,0.1-14.2,1.2c-2.1,0.5-4.2,1.2-6.3,1.9c-0.5,0.2-1.1,0.2-1.3,1
			c-0.5-0.9,0.2-1.1,0.6-1.3c2.1-1.3,4.3-2.3,6.7-3c5.3-1.6,10.7-2.3,16.3-2.2c2.4,0.1,4.7,0.6,7,0.8c4.4,0.4,8.8,0.3,13.1-0.4
			c2.5-0.4,5-0.6,7.3-1.7c0.1-0.1,0.3,0,0.5,0.1C255.4,153.8,255.4,154.6,255.4,155.3z"/>
		<path fill="#FDFDFD" stroke="#767676" stroke-miterlimit="10" d="M255.4,159.1c-2.6,0.3-5.2,0.7-7.8,0.7
			c-4.7,0.1-9.4-0.5-14.1-0.9c-3.1-0.3-6.1-0.3-9.2-0.3c-4.2,0-8.3,0.7-12.3,1.9c-2.3,0.6-4.7,0.5-7,1.3c-0.3,0.1-0.6,0-0.7-0.3
			c-0.1-0.5,0.3-0.5,0.6-0.6c2.5-0.8,5-1.8,7.5-2.4c3.2-0.7,6.5-1.2,9.8-1.2c3.2-0.1,6.3,0.3,9.4,0.5c7.2,0.3,14.4,0.8,21.5-1
			c0.8-0.2,1.4-0.8,2.2-0.7C255.4,157,255.4,158.1,255.4,159.1z"/>
		<path fill="#FDFDFD" stroke="#767676" stroke-miterlimit="10" d="M0.2,9.4c0-2.8,0-5.6,0-8.4c0-0.6,0.1-0.7,0.7-0.7
			c3.8,0,7.7,0,11.5,0C12.2,1,11.9,1.8,11,2c-0.4,0.1-0.7,0.3-1.1,0.5C7.5,4.3,5,6.1,2.6,7.9C2.2,8.2,1.7,8.5,2.3,9.4
			C1.4,8.4,0.9,9.5,0.2,9.4z"/>
		<path fill="#767676" stroke="#767676" stroke-miterlimit="10" d="M0.2,9.4c0.7,0.1,1.2-0.9,2.1,0C1.7,8.5,2.2,8.2,2.6,7.9
			C5,6.1,7.5,4.3,9.9,2.5C10.2,2.3,10.6,2.1,11,2c1-0.2,1.2-1,1.5-1.8c0.7,0,1.4,0,2.2,0c-0.2,0.8-0.8,1.3-1.4,1.6
			c-1.6,0.9-2.8,2.3-4.3,3.2c-2.7,1.5-5,3.7-7.5,5.4c-0.4,0.3-0.7,0.2-1.1,0.3C0.2,10.3,0.2,9.8,0.2,9.4z"/>
		<path stroke="#767676" stroke-miterlimit="10" d="M0.2,70.3c1.4,0.2,2.8-0.2,4.3-0.3c4.2-0.3,8.3-1.5,12.5-1.7
			c0.3,0.5-0.5,0.6-0.4,1c-1.1-0.5-2.3-0.2-3.3,0.2c-2.5,0.9-5.1,1-7.7,1.3C3.8,71,2,70.9,0.2,71.5C0.2,71.1,0.2,70.7,0.2,70.3z"/>
		<path fill="#767676" stroke="#767676" stroke-miterlimit="10" d="M68.1,4.5c0.3-0.7,0.9-0.7,1.6-0.7c0.4,0,0.9-0.2,1.4-0.4
			c0.3-0.1,0.9-0.1,0.8-0.6c-0.1-0.6-0.6-0.2-1.2-0.2c1.3-0.5,2.5-0.6,3.5-1.3c0.5-0.3,1-0.1,1.5,0c1,0.2,1.6-0.1,1.7-1.2
			c0.5,0,1,0,1.4,0c0.1,0.9-0.2,1.2-1.2,1.5c-1.2,0.3-2.3,0.5-3.5,0.3c-0.3-0.1-0.7,0.1-0.6,0.4c0.3,1.3-0.7,1.6-1.4,2.3
			c-0.1-0.1-0.2-0.1-0.3-0.2c0.2-0.3,0.5-0.4,0.5-0.9C70.9,3.9,69.5,4.2,68.1,4.5L68.1,4.5z"/>
		<path fill="#FDFDFD" stroke="#767676" stroke-miterlimit="10" d="M152.9,170.4c0.2-0.5,0.4-0.8,1-0.7c1.3,0.1,2.6-0.2,3.9,0.2
			c0.4,0.1,1-0.1,1.4-0.1c2.7,0.1,5.5-0.3,8.1,0.6C162.5,170.4,157.7,170.4,152.9,170.4z"/>
		<path fill="#767676" stroke="#767676" stroke-miterlimit="10" d="M255.4,77.5c-1.3-0.6-2.7-1.1-4.1-1.3c-1.5-0.3-2.7-1.2-4.1-1.7
			c0,0,0,0,0-0.1c0,0,0.1,0.1,0.1,0.1c1.7-0.3,3,0.8,4.4,1.2c1.2,0.3,2.4,0.7,3.6,1.1C255.4,77,255.4,77.3,255.4,77.5z"/>
		<path fill="#767676" stroke="#767676" stroke-miterlimit="10" d="M38.8,3.2c-1.3-0.5-2-1.5-2.1-2.9c0.2,0,0.5,0,0.7,0
			c-0.1,1,1.1,1,1.2,1.8C38.7,2.4,38.8,2.8,38.8,3.2z"/>
		<path stroke="#767676" stroke-miterlimit="10" d="M1.4,78.1C1.6,78,1.7,78,1.9,78c0.4-0.1,0.6-0.5,1.1-0.5c0.6,0,0.7,0.2,0.6,0.7
			c-1,0.5-2.3,0.3-3.3,0.8c0-0.4,0-0.8,0-1.2c0.2,0.1,0.3,0.2,0.5,0.3C0.9,78.5,1.2,78.3,1.4,78.1z"/>
		<path fill="#767676" stroke="#767676" stroke-miterlimit="10" d="M255.4,115c-1.5-0.5-3.2-0.6-4.6-1.3c1.6,0,3,0.8,4.6,0.6
			C255.4,114.5,255.4,114.7,255.4,115z"/>
		<path fill="#767676" stroke="#767676" stroke-miterlimit="10" d="M3.6,64.6c-1.1,0.1-2.2,0.7-3.3,0.5c0-0.3,0-0.6,0-1
			c1,0.6,2.1-0.1,3.2,0.1C3.5,64.3,3.5,64.4,3.6,64.6z"/>
		<path fill="#767676" stroke="#767676" stroke-miterlimit="10" d="M135.1,0.2c-0.1,0.6,0.3,1,0.5,1.5l0,0c-0.8-0.2-1.7-0.3-1.4-1.4
			C134.5,0.2,134.8,0.2,135.1,0.2z"/>
		<path fill="#767676" stroke="#767676" stroke-miterlimit="10" d="M47.3,170.4c-0.4-1.2,0-2.4,0.2-3.6c0.1,0,0.2,0,0.3,0
			c-0.2,1.2-0.2,2.4-0.2,3.6C47.4,170.4,47.4,170.4,47.3,170.4z"/>
		<path stroke="#767676" stroke-miterlimit="10" d="M57,59.9c-1.1,0.5-2.3,0.2-3.5,0.3c0.1-0.4-0.5-0.5-0.3-0.9
			c3.2-0.1,6.3-0.4,9.5-0.7c0.3,0.1,0.6,0.1,0.8-0.1c1.3,0.2,2.6,0,3.9-0.1c0.9,0.5,1.7,0.4,2.4-0.2c0.3,0,0.7-0.1,1,0.1
			c0.6,0.1,1.3,0.3,1.9-0.1c0.7-0.1,1.5-0.3,2.2-0.4c2.2-0.2,3.2-1.9,4.2-3.5c0.6-1,1.7-1.6,2.6-1.7c1.9-0.1,3.5-0.9,5.2-1.4
			c2.7-0.7,5.3-1.7,8-2.5c3.2-0.9,6.5-1.6,9.8-2.3c3-0.7,6.1-0.8,9.1-1.4c4.8-0.9,9.5-1.9,14.3-2.8c2.9-0.5,5.9-0.7,8.9-1.1
			c2.4-0.3,4.7-0.6,7.1-0.7c0.1,0.6,0.8,0.1,1,0.5c-4.7,0.3-9.3,1.3-13.9,1.8c-7.4,0.8-14.6,2.6-21.9,3.6c-4.7,0.6-9.2,2-13.8,3.3
			c-3.1,0.9-6.1,1.7-9,3c-0.9,0.4-1.8,0.4-2.8,0.5c-1.5,0.2-2.2,1.4-3.2,2.4c-1.5,1.6-1.5,1.6,0.5,2.4c0.8,0.3,1.6,0.4,2.1-0.2
			c0.5-0.7,0.9-0.5,1.4-0.2c-1,0.5-1.2,0.9-0.8,1c1.4,0.3,2.4,2.2,4.1,0.9c0.2-0.1,0.5-0.1,0.6,0.2c0,0.1-0.1,0.1,0,0.2
			c-0.2,0-0.4,0-0.4,0.1c0.1,0.5,0.5,0.4,0.8,0.4c1.5,0,3,0,4.4-0.5c1.7-0.7,3.6-0.5,5.2-1.5c2.1-0.1,4.3-0.3,6.3-0.7
			c3.9-0.8,7.9-0.9,11.9-1.2c0.2,0.1,0.3,0.5,0.6,0.5c-1.1,0.2-2.3,0.4-3.4,0.5c-6.2,0.3-12.3,1.6-18.4,2.9
			c-0.3,0.1-0.6,0.2-0.9,0.3c-2.8,1-2.8,1.1-2.9,4.1c0,1.6-0.2,3.3-0.2,5c0.9,0.5,2.1,0.8,3.3,0.7c1.2-0.1,2.3,0.2,3.4,0.6
			c3.6,1.3,7.3,2.4,11.2,2.6c1,0,2,0.7,3.1,0.6c2.6-0.3,5.1-0.5,7.7-1c3-0.5,6.1-0.5,9.2-0.5c1.8,0,3.6-0.6,5.5-0.2
			c0.5,0.1,0.9-0.2,0.9-0.9c0.2-2.6,1.5-4.8,3.2-6.5c0.9-0.9,2.4-1.5,3.7-2.2c0.3,0.2,0.9-0.2,0.8,0.6c-2.8,1.1-4.7,3-5.7,5.9
			c-0.4,1.1-1.2,2.1-1.2,3.3c0,0.5-0.5,0.4-0.8,0.4c-5,0.1-10,0.6-15.1,1.1c-2.9,0.3-5.9,0.6-8.8,0.9c-0.2-0.1-0.5-0.3-0.6,0.1
			c-0.1,0.1-0.3,0.1-0.4,0.2c-0.2-0.9-0.9-0.7-1.5-0.7c-0.3,0-0.7-0.1-0.7,0.3c0,0.4,0.4,0.4,0.7,0.5c-3,0.8-6.1,0.3-9.1,0.7
			c-0.4,0-0.7-0.2-1.1-0.3c0.1-0.1,0.2-0.2,0.1-0.3c2.2-0.1,4.4-0.5,6.8-1.3c-2.1-0.8-3.9-1.4-5.8-1.8c-0.3-0.1-0.6,0-0.8-0.2
			c-3.2-1.5-6.7-1.5-10.1-1.4c-2.5,0-5,0.4-7.5,0.7c-0.8,0.1-1.7,0.3-2.5,0.2c0-0.6,0.5-0.6,0.9-0.8c1.6-0.5,3.4-0.4,5-0.8
			c0.7-0.2,1-0.5,1.2-1c0.2,0,0.3,0,0.5,0c0.1,0.3,0.3,0.2,0.5,0.1c0.9,0,1.7-0.1,2.5-0.4c0.5-0.2,0.9-0.5,0.8-1.1
			c0-0.2,0-0.3,0-0.5c0.1-1.6,0.1-3.3,0.2-5c-2.3,1-4.8,0.9-7.1,1.8c-1.3,0.5-2.7-0.1-4.1,0.1c-3,0.3-6,0.4-9.1,0.6
			c-0.7,0-1.4-0.2-2.1-0.3c0-0.8,0.6-0.7,1-0.6c0.8,0.1,1.7,0,2.5-0.2c0.7-0.2,1.4-0.2,2.1-0.1c1.3,0.2,2.6,0.4,3.9-0.2
			c0.5,0,1,0.1,1.4,0c0.8-0.2,1.7,0.1,2.3-0.7c0.3,0,0.7-0.5,0.8-0.2c0.1,1.2,0.9,0.6,1.4,0.6c1.1,0.1,1.6-1.4,2.8-1.2
			c0.2,0,0.2-0.3,0.1-0.5c-0.2-0.3-0.4-0.5-0.8-0.4c-0.6,0.2-1.1,0.3-1.7,0.5c-0.4,0.1-0.8,0.4-1-0.2c0.6-0.3,1.2-0.5,1.9-0.8
			c0.2-0.1,0.4-0.1,0.4-0.3c0-0.2-0.2-0.4-0.4-0.4c-2.5,0-4.7-1-7.1-1.6c-1.4-0.3-2.8,0.3-4.2,0.5c-2.1,0.4-4.1,0.6-6.3,0.5
			c-1.3,0-2.6-0.1-4.2,0.3c0.8,0.6,1.4,0.6,2.1,0.4c-0.3,0.1-0.6,0-0.9,0.2c-0.2,0.1-0.5,0.2-0.7,0.1c-2.9-0.7-3.7-0.8-6.1-0.3
			C57.5,59.8,57.3,59.7,57,59.9z"/>
		<path stroke="#767676" stroke-miterlimit="10" d="M38.8,3.2c-0.1-0.4-0.1-0.7-0.2-1.1c1.8,2,3.7,3.9,5.5,5.9
			c0,0.3,0.1,0.5,0.4,0.5c0.1,0.1,0.2,0.2,0.3,0.2c0.2,1.3,1.3,2.1,2.1,3.1c0,0.1,0.1,0.2,0.1,0.4c0.9,0.8,2.2,0.6,2.7-0.6
			c0.6-0.1,1.3-0.2,1.9-0.3c0.1,0.3,0.1,0.8,0.5,0.1c0.2-0.3,0.5-0.6,0.8,0c-0.1,1.1-1,1.3-1.9,1.7c-1,0.5-2.3,0.8-3,1.9
			c0,0.1,0,0.2,0,0.4c-1.3,0.2-2,0.6-1.8,2.1c0.2,1.9,0.1,3.9,0.4,5.8c0.3,2.2,0.2,4.4,0.2,6.6c0,2.7,0,5.4-0.2,8.1
			c-0.3,6.5-0.3,13.1-0.5,19.6c0,0.4,0,0.9-0.1,1.3c-0.2,1.5,0,1.7,1.4,1.4c1.4-0.4,2.9,0,4.3-0.6c0.1,0.2,0.1,0.4,0.2,0.6
			c-2.4,0.4-4.7,0.9-7.2,0.9c-0.1-0.3-0.1-0.6,0.4-0.7c0.2,0,0.4-0.3,0.3-0.4c-1-0.6-0.4-1.5-0.5-2.3c-0.2-2.1-0.4-4.3,0.1-6.4
			c0.4-1.8-0.1-3.6,0.2-5.3c0.1-1,0.3-2,0-2.9c-0.1-0.9-0.1-1.7-0.2-2.6c0.3-0.4,0.3-0.9,0.3-1.4c0.1-0.8-0.3-1.7,0.2-2.3
			c0.9-1.2,0.5-2.7,0.5-4c0.1-1.6,0.1-3.4-1.4-4.8c1.5-0.2,1.5-0.2,0.7-1.3c-0.1-0.2-0.4-0.4-0.1-0.6c1.3-0.7,0.5-1.6,0.3-2.4
			c-0.1-0.4-0.5-0.7-0.2-1.1c0.9-1,0.2-1.4-0.6-1.9c-0.2-1,0-2,0.2-2.9c0.1-0.5,0.3-1,0.2-1.5c-0.2-1-0.1-1.8,1.1-2.1
			c0.7-0.2,0.5-0.8,0.3-1.3c-0.9-1.7-2.1-3.2-3.3-4.6C41.9,6.6,40.3,4.9,38.8,3.2z"/>
		<path stroke="#767676" stroke-miterlimit="10" d="M205.4,63.9c-0.2,0-0.3-0.1-0.5-0.1c-0.8-0.3-1.4,0.1-2,0.5
			c-0.1,0-0.3,0.1-0.4,0.1c-0.2-0.5-0.4-0.7-1-0.6c-1.1,0.3-2.1,0.5-3.2,0.8c-4.3,0.7-7.9,2.8-11.2,5.5c-6.2,5-10.3,11.3-13.1,18.7
			c-0.2,0.5-0.3,1-0.4,1.5c-0.3,0.1-0.4-0.1-0.4-0.4c-0.1-0.7,0.1-1.4,0.3-2.1c0.4-1,0.9-2,1-3.1c2.3-4.7,4.9-9.2,8.5-13
			c3.5-3.6,7.8-5.7,12.5-7.1c2.8-0.9,5.7-1.4,8.7-1.6c2-0.1,3.9,0.4,5.7,1.4c0.1,0.2,0.2,0.3,0.2,0.5c-0.9,0.3-1.4-0.5-2.2-0.6
			c-0.3,0-0.6-0.1-0.9-0.2C206.6,63.4,206,63.6,205.4,63.9z"/>
		<path stroke="#767676" stroke-miterlimit="10" d="M169.9,38.9c5.6,0.1,11.1,0.3,16.7,0.5c2.6,0.1,5.1,0.4,7.7,0.4
			c0.3,0,0.6,0.1,0.6-0.3c0.1-0.3-0.2-0.3-0.4-0.4c-5.9-1.9-11.8-3.8-17.3-6.6c-0.2-0.1-0.4-0.1-0.6-0.2c0.3-0.2,0.7,0.1,0.9-0.3
			c0.3,0,0.6,0.1,0.9,0.3c0.1,0.3,0.3,0.4,0.6,0.1c0.6,0.1,1.2,0.3,1.8,0.6c3.2,1.4,6.5,2.7,9.7,4c0.7,0.3,1.5,0.3,2.2,0.5
			c1.4,0.4,2.7,0.6,3.8,1.8c0.8,1,2.1,0.6,3.2,0.7c0.3,0.3,0,0.6-0.1,0.8c-0.5,0.2-1,0.1-1.5-0.1c-2.6-0.7-5.3,0.2-7.9-1
			c-2.3,0.7-4.7,0.3-7,0.1c-4.3-0.3-8.6-0.3-12.8-0.5C170.3,39.1,170.1,39,169.9,38.9z"/>
		<path fill="#767676" stroke="#767676" stroke-miterlimit="10" d="M96.7,91.5c0.2-0.6,0.7-0.4,1.1-0.4c3.5,0,6.9-1,10.2-2
			c2.8-0.9,5.8-1.5,8.7-1.9c2.4-0.4,4.7-1,7-1.7c2.7-0.9,5.4-1.2,8.2-1.8c0.9-0.2,1.8-0.5,2.7-0.7c0.1,0,0.2-0.4,0.4,0
			c0,0.1,0,0.2-0.2,0.3c-0.7,0.6-1.6,0.9-2.4,1.1c-3.3,0.5-6.6,1.3-9.8,2.2c-4.3,1.2-8.8,1.8-13.1,2.9c-0.7,0.2-1.3,0.4-1.9,0.6
			c-3.5,1.2-7.1,1.8-10.9,1.7C96.6,91.7,96.6,91.6,96.7,91.5z"/>
		<path fill="#767676" stroke="#767676" stroke-miterlimit="10" d="M39.8,82.6c2-0.3,3.9-0.5,5.8-0.7c2.5-0.4,5-0.7,7.5-1.1
			c4-0.7,8.1-1.2,12.2-1.2c3.8,0,7.5-0.3,11.2-0.7c1.5-0.1,3-0.6,4.4-1.1c2.9-0.9,5.9-1.4,8.9-1.8c0.3,0,0.4,0,0.4,0.2
			c0.1,0.4-0.2,0.4-0.4,0.4c-1.8,0.2-3.6,0.6-5.4,1c-1.3,0.2-2.7,0.6-3.9,1c-3.6,1.3-7.4,1.3-11.2,1.5c-3.6,0.2-7.2,0.2-10.7,0.4
			c-1.4,0.1-2.8,0.6-4.2,0.8c-1,0.1-2,0.3-3,0.3c-3.6,0.3-7.1,1-10.7,1.4C40.4,82.9,40,83.1,39.8,82.6z"/>
		<path fill="#767676" stroke="#767676" stroke-miterlimit="10" d="M135.6,1.7c0.4,0,0.7,0.1,1,0.3c3.1,2.2,6.3,4.3,9.6,6.3
			c1,0.6,1.5,1.6,2.3,2.3c0.3,0.3,0.5,0.7,0.8,0.6c1.5-0.2,1.6,1,1.8,1.9c0.1,0.6,0.6,0.3,0.7,0.6c0.1,0.5,0.4,1.1,0.1,1.6
			c-0.4-0.3-0.7,0.1-1,0.2c-0.1-0.2-0.2-0.4-0.2-0.7c0.1-1-0.2-1-1.1-0.6c-0.9,0.5-2,0.2-3,0.1c0.6-0.5,1.4-0.2,2.1-0.4
			c0.4-0.1,0.9-0.2,1-0.4c0.3-0.4-0.3-0.6-0.5-0.9c-0.8-1.1-2.2-1.4-3.2-2.2c-0.4-0.3-0.9-0.5-1.1-1c0.3-0.1,0.7,0,0.8-0.4
			c0-0.1-0.1-0.4-0.1-0.4c-0.8,0.2-1-0.7-1.5-0.9c-0.9-0.5-1.8-0.9-2.5-1.6c-0.8-0.8-1.7-0.7-2.6-0.2c-1.4-0.3-2.1-1.6-2.9-2.5
			C135.8,3.2,135.9,2.2,135.6,1.7C135.6,1.7,135.6,1.7,135.6,1.7z"/>
		<path fill="#767676" stroke="#767676" stroke-miterlimit="10" d="M229.7,41.6c0.7-0.4,1.3-0.3,1.8,0c1.2,0.7,2.5,0.8,3.7,1.2
			c4.8,1.6,9.7,2.9,14.3,4.9c1.2,0.5,2.6,0.7,4.1,1.1c-1,0.7-1.9,0.5-2.7,0.3c-4.6-1.4-9.2-3.1-13.9-4.5c-2-0.6-3.9-1.4-5.8-2.4
			C230.9,41.8,230.4,41.4,229.7,41.6z"/>
		<path fill="#767676" stroke="#767676" stroke-miterlimit="10" d="M63.6,58.5c-0.2,0.2-0.5,0.2-0.8,0.1c0.2-2.9,0.5-5.7,0.6-8.6
			c0.1-3.4-0.2-6.8-0.1-10.2c0.1-4,0.1-7.9,0.1-11.8c0-2.2,0.1-4.5-0.2-6.7c-0.2-1.3,0.4-2.5-0.2-3.8c0.2,0,0.4,0,0.6,0
			c0,1.8-0.1,3.7,0,5.5c0.1,1.9,0.2,3.8,0.4,5.7c0.2,1.7,0,3.4,0,5.1c0.1,4.6-0.3,9.2,0.1,13.7c0.2,3-0.2,5.9,0,8.9
			C64,57.2,63.2,57.7,63.6,58.5z"/>
		<path fill="#767676" stroke="#767676" stroke-miterlimit="10" d="M173.7,55.4c1.5-0.6,3.1,0.1,4.4,0.5c1.4,0.4,2.9,0.4,4.3,0.6
			c2.4,0.4,4.8,0.7,7.2,1c2.2,0.3,4.4,0.8,6.6,0.9c2.4,0.1,4.8,0.6,7.2,1c3.4,0.5,6.5,1.7,9.6,3c-2.1-0.7-4.4-0.8-6.4-1.6
			c-2.3-0.9-4.8-1.5-7.3-1.4c-2.7,0.1-5.3-0.7-8-1c-2.9-0.3-5.7-0.8-8.6-1.2c-3-0.4-6-0.8-8.9-1.5C173.7,55.6,173.7,55.5,173.7,55.4
			z"/>
		<path stroke="#767676" stroke-miterlimit="10" d="M44.4,72.8c2.5,0.2,4.9-0.4,7.3-0.5c3.3-0.2,6.5,0.3,9.7,0.4
			c-0.1,0.1-0.1,0.3,0,0.4c-1.2,0.4-2.6,0.2-3.8,0.2c-2.4-0.2-4.8,0-7.2-0.1c-2-0.1-4,0.3-6,0.6c-2.3,0.3-4.6,0.5-7,0.6
			c-1.5,0-3,0.3-4.5,0.3c0.1-0.2,0.1-0.6,0.5-0.6c1.1,0,2.2-0.5,3.4-0.3c0.5,0.1,1.3,0.5,1.6-0.5c0.5,0,0.7-0.6,1.2-0.5
			c0,0.3-0.1,1.1,0.5,0.8C41.5,72.8,43,73.2,44.4,72.8z"/>
		<path fill="#767676" stroke="#767676" stroke-miterlimit="10" d="M196.1,132.7c-0.7,0.4-1,1.1-1.8,1.5c-1.8,1-3.8,1.4-5.7,1.9
			c-2.4,0.6-4.5,1.9-6.7,3c-2.7,1.4-5.5,2.6-8.3,3.8c-1.9,0.8-4,1.1-5.7,2.5c-0.2,0.2-0.7,0.7-1,0.2c-0.2-0.4,0.3-0.5,0.6-0.7
			c1.7-1.1,3.6-1.8,5.4-2.5c2.7-1,5.3-2.2,7.9-3.4c3.2-1.5,6.4-3.1,9.7-4.4c0.3-0.1,0.6-0.5,1-0.1c-0.1,0.3-0.6,0.2-0.7,0.7
			c0.6,0.1,1.2-0.1,1.7-0.5c0.6-0.4-0.1-0.4-0.3-0.5c0.1-0.1,0.2-0.3,0.3-0.3c1.2-0.5,2.4-0.7,3.5-1.3
			C196.1,132.5,196.1,132.6,196.1,132.7z M193.4,134C193.4,134,193.3,134,193.4,134c-0.1-0.1-0.1,0-0.2,0
			C193.3,134,193.3,134.1,193.4,134C193.4,134.1,193.4,134.1,193.4,134z"/>
		<path fill="#767676" stroke="#767676" stroke-miterlimit="10" d="M88.4,59.6c-0.1-0.3-0.4-0.3-0.6-0.2c-1.7,1.3-2.7-0.6-4.1-0.9
			c-0.5-0.1-0.3-0.5,0.8-1c-0.5-0.3-0.9-0.6-1.4,0.2c-0.5,0.6-1.3,0.5-2.1,0.2c-2-0.8-2-0.8-0.5-2.4c0.9-1,1.7-2.1,3.2-2.4
			c0.9-0.1,1.9-0.2,2.8-0.5c-0.2,0.8-0.9,0.8-1.4,1.1c-0.1,0.1-0.3,0.1-0.4,0.2c-0.6,0.3-1.7,0.6-1.6,1.2c0.1,0.7,1.1,0.1,1.7,0.3
			c0.1,0,0.1,0.1,0.2,0.2c-0.7,0.7-1.3,1.4,0.3,1.5c0.1,0,0.3,0.1,0.3,0.3c0.3,1.7,1.5,1.2,2.6,1.2c0.4,0,1-0.6,1.2,0.1
			C89.5,59.2,88.8,59.3,88.4,59.6z"/>
		<path stroke="#767676" stroke-miterlimit="10" d="M145.9,54.9c-6.4,0.4-12.8,0.8-19.2,1.1c-3.1,0.1-6.3,0.2-9.3,0.8
			c0-0.2,0-0.3,0-0.5c2.7-0.5,5.4-0.6,8.1-0.8c2.3-0.2,4.7-0.4,7-0.4c2.6,0,5.2-0.4,7.8-0.5c1.9-0.1,3.8,0.1,5.7-0.1
			C145.9,54.7,145.9,54.8,145.9,54.9z"/>
		<path stroke="#767676" stroke-miterlimit="10" d="M144.6,63.4c1.2,0.8,2.3,1.7,3,3.1c1.4,2.9,2.9,5.6,3.9,8.6
			c1.3,3.8,2.4,7.6,2.8,11.6c0.1,0.5,0.2,1.1-0.1,1.6c-0.5,0-0.6-0.4-0.6-0.7c-0.1-1-0.2-2.1-0.4-3.1c-0.8-4-1.8-7.9-3.3-11.7
			c-1-2.4-2.1-4.7-3.4-6.9C146,64.9,145.1,64.3,144.6,63.4z"/>
		<path fill="#767676" stroke="#767676" stroke-miterlimit="10" d="M86.2,69.1c-0.2,0.5-0.5,0.8-1.2,1c-1.7,0.4-3.4,0.3-5,0.8
			c-0.4,0.1-0.9,0.2-0.9,0.8c-2,0.4-4,0.8-6,0.5c-0.4,0-0.9,0-1.2-0.3c0-0.3,0-0.7,0-1c0.7-0.7,1.5-0.2,2.2-0.3c0.4,0,0.8,0.1,1.2,0
			c3.3-1.4,7-0.6,10.4-1.6C85.7,68.9,86,68.9,86.2,69.1z"/>
		<path fill="#767676" stroke="#767676" stroke-miterlimit="10" d="M39.2,83.1C30,84,20.8,85.8,11.6,86.2
			C12.1,85.7,37.3,82.6,39.2,83.1z"/>
		<path fill="#767676" stroke="#767676" stroke-miterlimit="10" d="M38.4,73.2c-0.3,0.9-1.1,0.5-1.6,0.5c-1.2-0.1-2.3,0.4-3.4,0.3
			c-0.4,0-0.4,0.3-0.5,0.6c-1.4,0.5-2.9,0.3-4.4,0.6c0.2-0.2,0.3-0.6-0.1-0.6c-0.6,0-1.1-0.1-1.6-0.2c-0.4-0.1-0.8,0.1-0.8,0.5
			c0,0.5,0.5,0.2,0.7,0.4c-0.5,0.6-1.3,0.5-2,0.5c-1.5-0.1-2.9,0.5-4.4,0.3c0.1-0.6-0.3-1-0.7-1.4c0.4-0.2,0.8-0.3,1.3-0.2
			c0,0.2,0,0.4,0.3,0.4c1.1,0.1,2.3,0.2,3.5,0.4c-0.3-0.8-1-0.6-1.4-0.9c1.6-0.3,3.2-0.8,4.8-0.3c0.2,0.1,0.4,0.1,0.6,0
			c2.5-1.1,5.2-0.5,7.8-0.9C37.1,73.2,37.7,72.7,38.4,73.2z"/>
		<path fill="#767676" stroke="#767676" stroke-miterlimit="10" d="M232.3,97c-0.1-0.1-0.1-0.1,0-0.2c0.1,0,0.1-0.1,0.2-0.1
			c-0.1,0-0.2-0.1-0.2-0.1c-0.8-1.1-0.9-2.5-1.1-3.8c-0.3-1.7-1.2-3-1.8-4.6c-0.5-1.4-1.3-2.6-1.2-4.2c0.8,1.4,1.4,2.8,2,4.2
			c0.3,0.8,0.5,0.4,0.7,0.2c0.1,1.5,0.6,3.1,1.2,4.6c0.9,2.3,2.1,4.5,2.2,7c0,0.1-0.1,0.2-0.1,0.3c-0.4-0.4-0.5-1.1-1.2-1.3
			c0,0,0,0,0,0C233.4,98.2,233.1,97.3,232.3,97z"/>
		<path stroke="#767676" stroke-miterlimit="10" d="M163.7,90.3c0.2,0,0.4,0.1,0.6,0.1c1.2,0.8,2.4,0.7,3.7,0.3
			c1.1,0,2.3,0.1,3.4,0.1c0.4,0.2,1,0.1,1.1,0.6c-0.2,0.1-0.5,0.2-0.7,0.3c-2-0.3-3.9-0.5-5.9,0.1c-0.5-0.1-1-0.2-1.5-0.3
			c-0.3-0.4-0.7-0.3-1.1-0.2c-2.8-0.2-5.7-0.6-8.4-1.2c0.7,0.1,1.4,0.1,2.1,0c-0.1-0.6-0.7-0.3-0.9-0.9c2.5,0,4.7,0.9,7.1,1.1
			C163.3,90.5,163.5,90.5,163.7,90.3z"/>
		<path fill="#767676" stroke="#767676" stroke-miterlimit="10" d="M239,48.5c-3.9-0.9-7.8-1.9-11.6-3.1c-2.6-0.8-5.2-1.7-8-1.7
			c-0.7,0-1.3-0.8-2.1-0.3c-0.1-0.2-0.3-0.4-0.3-0.6c0-0.5,0.4-0.3,0.6-0.3c1.8,0.2,3.6,0.7,5.4,1.1c2.3,0.5,4.6,1.4,6.8,2
			c2.9,0.8,5.7,1.7,8.7,2.2c0.2,0,0.5,0.1,0.6,0.3C239,48.2,239,48.4,239,48.5z"/>
		<path fill="#767676" stroke="#767676" stroke-miterlimit="10" d="M215.5,36.2c0.5,0.4,0.9,0.9,1.6,1c1.3,0.1,2.7,0.5,3.5,1.1
			c0.8,0.7,1.6,1.2,2.6,1.5c0.1,0,0.2,0.3,0.2,0.4c-0.1,0.2-0.3,0.2-0.5,0.1c-0.6-0.2-1.3-0.3-1.9-0.7c-2.2-1.2-4.6-2-6.8-3
			c-1.8-0.8-3.7-1.2-5.4-2c-0.3-0.1-0.6-0.3-0.8-0.5c-0.2-0.1-0.5-0.3-0.3-0.5c0.1-0.4,0.4-0.2,0.7-0.2c0.9,0.2,1.8,0.7,2.7,0.9
			c1.6,0.4,3.1,1,4.6,1.5c0.1,0,0.2,0.1,0.3,0.1C215.7,36,215.6,36.1,215.5,36.2z"/>
		<path fill="#767676" stroke="#767676" stroke-miterlimit="10" d="M210.2,64.8c-0.1-0.2-0.2-0.3-0.2-0.5c2.3,0.2,4.5,1.1,6,2.6
			c1.7,1.7,3.7,2.9,5.2,4.8c0.1,0.1,0.2,0.2,0.1,0.5c-1.2-1-2.4-2-3.6-3.1c-0.9-0.8-2-1.1-3-1.7c-0.4-0.2-0.9-0.1-0.9,0.2
			c0,1.1-1,1-1.5,1.5c-0.5,0.5-0.7-0.7-1.3-0.2c-0.4,0.3-0.8,0.7-1.4,0.8c-0.2,0-0.2-0.3-0.1-0.5c0.2-0.4,0.5-0.6,0.9-0.7
			c0.7-0.2,1.5-0.4,2.2-0.9c0.3-0.2,1-0.1,1-0.6c0-0.4-0.6-0.6-1-0.8C211.9,65.7,211,65.3,210.2,64.8z"/>
		<path fill="#767676" stroke="#767676" stroke-miterlimit="10" d="M126.5,127.2c0.8-0.6,1.7-1,2.6-1.3c3.4-1.1,6.5-2.9,9.9-4.1
			c4.4-1.5,8.3-4.1,12.5-5.9c0.3-0.1,0.6-0.4,1.1-0.1c0,0.6-0.6,0.7-1,0.8c-3.6,1.2-6.7,3.3-10.2,4.7c-4.7,2-9.4,4.1-14.3,5.7
			C127,127.1,126.7,127.2,126.5,127.2L126.5,127.2z"/>
		<path stroke="#767676" stroke-miterlimit="10" d="M19.7,74.7c0.4,0.4,0.8,0.8,0.7,1.4c-0.2,0-0.5,0-0.7,0c-0.3-0.2-0.6-0.3-1,0
			c-1.9,0.2-3.7,0.6-5.4,1.3c-0.2,0.1-0.4,0.1-0.6,0c-1-0.4-2.1-0.2-3.1-0.1c-0.2,0.2-0.7-0.7-0.7,0.2c-0.2,0.2-0.4,0.2-0.6,0.2
			c-0.3-0.3-0.6,0-0.8,0.1c-0.3,0-0.6,0-0.9-0.1c-0.7-0.8,0.5-0.6,0.5-1c0.6,0,1.2,0,1.8,0c0,0,0.1,0.1,0.1,0.1
			c0.1-0.1,0.1-0.1,0.2-0.2c3.4-0.3,6.7-0.8,10-1.9C19.3,74.6,19.5,74.7,19.7,74.7z"/>
		<path fill="#767676" stroke="#767676" stroke-miterlimit="10" d="M98.4,58.3c-1.6,1-3.5,0.9-5.2,1.5c-1.4,0.5-2.9,0.5-4.4,0.5
			c-0.3,0-0.8,0.1-0.8-0.4c0-0.2,0.2-0.2,0.4-0.1c0.6-0.2,1.3-0.2,1.8-0.5c1.9-1,4-0.8,6-1.4c1.1-0.4,2.6-0.6,4.1-0.7
			C99.7,57.9,98.7,57.6,98.4,58.3z"/>
		<path fill="#767676" stroke="#767676" stroke-miterlimit="10" d="M135.5,83.1c1-1.1,13.7-4.1,15.5-3.7
			C145.8,80.6,140.6,81.8,135.5,83.1z"/>
		<path stroke="#767676" stroke-miterlimit="10" d="M112.7,73.4c-0.2-0.6-0.1-1.1,0.3-1.5c2.2-2.7,4.4-5.4,6.7-8.1
			c0.4-0.5,1.1-0.8,1.7-1.2c0.1-0.1,0.3-0.2,0.4,0c0.1,0.2,0.1,0.3-0.1,0.4c-2,0.7-2.7,2.7-3.9,4.2c-1.3,1.7-3,3-4.1,4.8
			C113.4,72.5,113.2,73.1,112.7,73.4L112.7,73.4z"/>
		<path fill="#767676" stroke="#767676" stroke-miterlimit="10" d="M203.2,40.5c1.8-0.2,3.5,0.4,5.3,0.6c2.4,0.3,4.8,0.5,7.2,1.1
			c0.4,0.1,0.9,0.1,1,0.9c-4.5-1.1-9-1.2-13.4-2.1C203.3,40.9,203.2,40.7,203.2,40.5z"/>
		<path stroke="#767676" stroke-miterlimit="10" d="M148.4,39.9c1,0,1.9-0.1,2.8-0.6c0.5-0.1,0.4-1.1,1.2-0.9
			c-0.1,0.9,0.5,1,1.1,0.9c1.8-0.1,3.6-0.3,5.3-0.4c0,0.1,0,0.3,0.1,0.4c-3.5,0.6-7,0.7-10.6,1C148.3,40.2,148.3,40,148.4,39.9z
			 M151.9,39.3c0,0,0.1,0,0.1,0c0,0-0.1-0.1-0.1-0.1C151.9,39.2,151.9,39.2,151.9,39.3C151.9,39.2,151.9,39.3,151.9,39.3z"/>
		<path fill="#767676" stroke="#767676" stroke-miterlimit="10" d="M177.6,31.8c-0.2,0.4-0.7,0.1-0.9,0.3c-1.4-0.2-2.7-0.5-3.9-1.4
			c-0.4-0.3-1-0.5-1.5,0c-0.3,0.3-0.7,0.5-1,0.8c0.3-1-0.5-1.5-1.1-2.1c2.2,0.3,4.3,0.8,6.4,1.6C176.3,31.2,176.9,31.5,177.6,31.8z"
			/>
		<path fill="#767676" stroke="#767676" stroke-miterlimit="10" d="M152.4,38.4c-0.8-0.2-0.7,0.8-1.2,0.9c0-1,0-1.9,0-2.9
			c0-0.6,0.2-0.7,0.7-0.5c0.2,0,0.5,0.2,0.5,0c0-1,0.5-2-0.3-2.9c-0.2-0.9-0.1-1.8-0.1-2.7c0-0.2-0.1-0.7,0.4-0.5
			c0.3,0.1,0.8,0.1,0.6,0.7c-0.6,1.7-0.1,3.4,0,5C153,36.7,152.8,37.6,152.4,38.4z"/>
		<path fill="#767676" stroke="#767676" stroke-miterlimit="10" d="M172.6,91.4c-0.2-0.6-0.8-0.4-1.1-0.6c0.7-2.3,2.1-4.1,3.2-6.1
			c-0.1,1.1-0.7,2.1-1,3.1c-0.2,0.7-0.4,1.4-0.3,2.1c0,0.3,0.1,0.5,0.4,0.4c0.3,0.5,0.8,0.4,1.3,0.4c0.7-0.1,1.3-0.4,2.2-0.2
			C175.5,90.8,174,91.1,172.6,91.4z"/>
		<path stroke="#767676" stroke-miterlimit="10" d="M135,59.8c-0.4,0.1-0.9,0.8-1.2-0.1c0-0.1-0.6,0-0.9,0c-2.1,0.3-4.3,0.5-6.3,1.3
			c-0.6,0.2-1.2,0.5-1.8,0.4c1-1.5,7.5-2.8,10.3-2.1C135.1,59.5,135.1,59.7,135,59.8z"/>
		<path fill="#767676" stroke="#767676" stroke-miterlimit="10" d="M106.8,111.6c-0.4,0.6-1,1-1.5,1.3c-1.8,1-4,1.1-5.9,1.8
			c-0.2,0.1-0.4,0-0.4-0.3c0-0.2,0.2-0.3,0.4-0.4c1.5-0.6,3-1.2,4.6-1.7c0.8-0.3,1.4-0.9,2.3-1.1C106.4,111.2,106.7,111,106.8,111.6
			z"/>
		<path fill="#767676" stroke="#767676" stroke-miterlimit="10" d="M160.8,28.4c1.6,0,3.1,0.9,4.7,1.1c0.9,0.1,1.9-0.3,2.8,0
			c0,0.3-0.7,0.8,0.3,0.7c0.3,0,0.4,0.3,0.4,0.6c-2.3-0.7-4.7-0.7-7.1-1.2c-0.4-0.1-0.5-0.5-0.9-0.4C160.9,29,160.9,28.7,160.8,28.4
			z"/>
		<path fill="#767676" stroke="#767676" stroke-miterlimit="10" d="M152.1,19.2c0.1,0.8,0.2,1.7-0.3,2.4c-0.3,0.4-0.1,0.9-0.1,1.4
			c0,2.1,0,4.2,0,6.3c-0.2,0-0.4,0-0.6,0c-0.2-4.4,0.4-8.8,0-13.2c0.9,0.4,0.6,1.2,0.6,1.9C151.7,18.4,151.3,19,152.1,19.2z"/>
		<path fill="#767676" stroke="#767676" stroke-miterlimit="10" d="M233.8,104c-0.2-0.5-0.4-1-0.2-1.5c0.8,0.5,0.8,0.5,1-0.4
			c0.7,0.6,0.6,1.4,0.6,2.2c-0.8,0.9-0.6,2.4,0.4,2.9c0.7,0.6,0.3,1.3,0.1,2c0,0.3-0.3,0.3-0.4,0.2c-0.4-0.4-1.2-0.1-1.2-0.9
			c0-0.6,0-1.3-0.1-1.9C234.4,105.5,234.7,104.7,233.8,104z"/>
		<path fill="#767676" stroke="#767676" stroke-miterlimit="10" d="M166,91.8c1.9-0.6,3.9-0.4,5.9-0.1c-1.2,1.1-2.8,1-4.2,1.5
			c-0.4,0.2-1,0.3-1.6,0.6c0.4-0.9,1.1-0.9,1.7-1.2C167.4,91.9,166.4,92.3,166,91.8z"/>
		<path stroke="#767676" stroke-miterlimit="10" d="M139,6c0.9-0.6,1.8-0.7,2.6,0.2c0.7,0.7,1.6,1.2,2.5,1.6
			c0.5,0.3,0.7,1.1,1.5,0.9c0,0,0.1,0.3,0.1,0.4c-0.1,0.4-0.5,0.3-0.8,0.4c-0.2-0.2-0.4-0.3-0.7-0.5c-0.3-0.8-1-0.9-1.8-0.9
			C141.1,7.7,140.3,6.5,139,6z"/>
		<path fill="#767676" stroke="#767676" stroke-miterlimit="10" d="M158.9,39.4c0-0.1,0-0.3-0.1-0.4c2.5-0.2,5-0.3,7.4-0.2
			c1.2,0,2.4,0.1,3.6,0.2c0.2,0.1,0.4,0.3,0.5,0.4C166.6,39.3,162.7,39.3,158.9,39.4z"/>
		<path fill="#767676" stroke="#767676" stroke-miterlimit="10" d="M162,54.7c2.2-0.2,4.4,0.1,6.6,0.1c0.6,0,1.2,0.2,1.9,0.3
			c-0.1,0.2-0.1,0.3,0,0.5c-2.7,0-5.3-0.1-7.9-0.3C162.3,55.1,162.2,54.9,162,54.7z"/>
		<path fill="#767676" stroke="#767676" stroke-miterlimit="10" d="M145.9,54.9c0-0.1,0-0.3,0-0.4c2.9-0.1,5.7-0.2,8.6,0.2
			c0,0.1,0,0.3,0,0.4C151.7,55.4,148.8,55.1,145.9,54.9z"/>
		<path stroke="#767676" stroke-miterlimit="10" d="M169,30.9c0-0.3-0.1-0.6-0.4-0.6c-0.9,0-0.2-0.5-0.3-0.7
			c0.2-0.2,0.5-0.2,0.8-0.2c0.6,0.6,1.4,1.1,1.1,2.1c0,0.3,0,0.6,0,0.9c-0.1,1.3-0.2,2.5-0.4,3.8c-0.1-1.3-0.3-2.7-0.4-4
			C169.4,31.7,169.3,31.3,169,30.9z"/>
		<path fill="#767676" stroke="#767676" stroke-miterlimit="10" d="M207.3,39.5c-0.9-1.5-1.8-3-2.6-4.5c-0.4-0.7-0.8-0.7-1.3,0
			c0-0.6,0.3-0.9,0.6-1.2c0.4-0.4,0.7-0.4,1,0.2c0.7,1.4,1.5,2.8,2.3,4.2C207.6,38.5,207.5,39,207.3,39.5z"/>
		<path fill="#767676" stroke="#767676" stroke-miterlimit="10" d="M248.3,50.8c0.1,0,0.2-0.1,0.2-0.1c1.8,0.7,3.8,0.8,5.5,1.8
			c0.3,0.1,0.5,0.4,0.6,0.7c-1.9-0.1-3.6-0.6-5.2-1.4C249.2,51.3,248.3,51.5,248.3,50.8z"/>
		<path fill="#767676" stroke="#767676" stroke-miterlimit="10" d="M53.8,11.8c3.5-1.8,6.5-4.5,10.5-5.3c-0.1,0.4-0.4,0.6-0.6,0.6
			c-3,0.9-5.5,2.8-8.2,4.1C54.9,11.5,54.4,11.9,53.8,11.8L53.8,11.8z"/>
		<path fill="#767676" stroke="#767676" stroke-miterlimit="10" d="M86,119.2c2.4-1.3,5-2.2,7.7-2.9C91.4,117.8,88.6,118.1,86,119.2
			z"/>
		<path fill="#767676" stroke="#767676" stroke-miterlimit="10" d="M49.7,11.6C49.2,12.7,48,13,47,12.1c0.4-0.2,1,0.1,1.2-0.5
			c-0.5-0.4-0.9,0.1-1.3,0.2c-0.8-0.9-1.8-1.7-2.1-3.1c0.4,0,0.6,0.4,0.8,0.6C46.6,10.7,48,11.5,49.7,11.6z"/>
		<path fill="#767676" stroke="#767676" stroke-miterlimit="10" d="M109.4,13.9c3.4,0.2,6.9-0.1,10.1,0.4c-3.2,0-6.6,0-10.1,0
			C109.4,14.2,109.4,14.1,109.4,13.9z"/>
		<path fill="#767676" stroke="#767676" stroke-miterlimit="10" d="M98.9,75.5c0.1,0.1,0.1,0.2-0.1,0.3c-2.5,0.5-5.1,0.5-7.7,0.6
			c-0.2,0-0.4,0.1-0.4-0.2c0-0.2,0.2-0.3,0.4-0.3C93.8,75.7,96.4,75.6,98.9,75.5z"/>
		<path fill="#767676" stroke="#767676" stroke-miterlimit="10" d="M7,76.7c-0.1,0.4-1.3,0.2-0.5,1c-0.9,0.5-2,0.2-2.9,0.5
			c0.1-0.5,0-0.6-0.6-0.7c-0.5,0-0.7,0.4-1.1,0.5c0-0.4-0.1-1,0.4-0.9C3.9,77.3,5.4,76.7,7,76.7z"/>
		<path stroke="#767676" stroke-miterlimit="10" d="M154.6,55.1c0-0.1,0-0.3,0-0.4c2.5-0.2,5-0.1,7.4,0c0.2,0.2,0.3,0.4,0.5,0.6
			C159.9,55,157.2,55.3,154.6,55.1z"/>
		<path fill="#767676" stroke="#767676" stroke-miterlimit="10" d="M137.5,14.2c-3.1,0.6-6.3,0.1-9.4,0
			C131.3,14.2,134.4,14.2,137.5,14.2z"/>
		<path fill="#767676" stroke="#767676" stroke-miterlimit="10" d="M61.4,73.1c-0.1-0.1-0.1-0.3,0-0.4c1-0.7,2.5-0.1,3.2-1
			c0.8-1,1.4-0.4,2.1-0.4c-0.5,0.4-1.1,0.4-1.6,0.6c-0.5,0.2,0,0.3,0,0.5C63.8,72.4,62.7,73.2,61.4,73.1z"/>
		<path stroke="#767676" stroke-miterlimit="10" d="M234.6,102c-0.2,1-0.2,1-1,0.4c-0.3-1.1-0.7-2.2-0.6-3.4
			c0.7,0.2,0.8,0.9,1.2,1.3C234.3,100.9,234.7,101.4,234.6,102z"/>
		<path fill="#767676" stroke="#767676" stroke-miterlimit="10" d="M25.3,106.9c-1.8,0.7-3.7,1.2-5.8,1.1c1.9-0.6,3.7-1.3,5.6-1.6
			C25.2,106.7,25.2,106.8,25.3,106.9z"/>
		<path stroke="#767676" stroke-miterlimit="10" d="M25.3,106.9c0-0.1-0.1-0.3-0.1-0.4c0,0,0,0,0,0c0.2,0.1,0.4,0.1,0.5-0.2
			c1.9-0.4,3.8-0.8,5.7-1.2c0,0.2,0,0.3,0.1,0.5C29.4,106.1,27.4,106.7,25.3,106.9z"/>
		<path fill="#767676" stroke="#767676" stroke-miterlimit="10" d="M198.4,64.6c1.1-0.3,2.1-0.5,3.2-0.8c0.5-0.1,0.8,0.2,1,0.6
			C201.2,65.3,199.8,65.4,198.4,64.6z"/>
		<path fill="#767676" stroke="#767676" stroke-miterlimit="10" d="M67.7,71.4c0.8-0.8,1.8-0.4,2.7-0.3c-0.1,0.4,0,0.7,0.2,0.9
			c-0.9,0.4-1.9,0.3-2.9,0.2C67.7,71.9,67.7,71.7,67.7,71.4z"/>
		<path stroke="#767676" stroke-miterlimit="10" d="M141.1,61.4c-1.7-0.6-3.3-1.5-5.2-1.5c0-0.2,0-0.4,0-0.5
			c1.8,0.3,3.6,0.7,5.2,1.6C141.1,61.1,141.1,61.3,141.1,61.4z"/>
		<path fill="#767676" stroke="#767676" stroke-miterlimit="10" d="M169.8,36.2c0.1-1.3,0.2-2.5,0.4-3.8c0.6,0.4,0.4,1,0.4,1.5
			c0,1.3-0.1,2.6-0.6,3.8C169.9,37.2,169.2,36.7,169.8,36.2z"/>
		<path stroke="#767676" stroke-miterlimit="10" d="M248.3,50.8c0,0.7,0.9,0.4,1,1c-1.5-0.5-3.1-0.9-4.6-1.4c0-0.1,0-0.2,0-0.2
			C246.1,49.9,247.2,50.6,248.3,50.8z"/>
		<path fill="#767676" stroke="#767676" stroke-miterlimit="10" d="M221.5,78.3c0.9-0.7,2.1-0.8,3-1.6c0.3-0.2,1-0.4,1.2,0.2
			c0.2,0.4-0.5,0.5-0.8,0.6C223.8,77.8,222.8,78.4,221.5,78.3L221.5,78.3z"/>
		<path fill="#767676" stroke="#767676" stroke-miterlimit="10" d="M244.8,50.2c0,0.1,0,0.2,0,0.2c-1.2-0.1-2.3-0.8-3.4-1.1
			c-0.2,0-0.4-0.1-0.3-0.4c0-0.1,0.1-0.2,0.2-0.2C242,48.4,244.5,49.5,244.8,50.2z"/>
		<path fill="#767676" stroke="#767676" stroke-miterlimit="10" d="M159.9,148.5c1-0.6,2.1-1.2,3.1-1.8c0.2-0.1,0.5-0.2,0.6,0
			c0.1,0.1,0,0.3-0.1,0.4C162.4,147.8,161.3,148.5,159.9,148.5z"/>
		<path stroke="#767676" stroke-miterlimit="10" d="M196.1,132.7c0-0.1,0-0.2,0-0.2c0.8-0.9,2-1.1,3.1-1.5c0.3-0.1,0.4,0,0.4,0.2
			c0.1,0.2,0,0.3-0.2,0.4C198.3,131.7,197.3,132.6,196.1,132.7z"/>
		<path fill="#767676" stroke="#767676" stroke-miterlimit="10" d="M141.1,61.4c0-0.1,0-0.3,0-0.4c1.2,0.6,2.4,1.3,3.5,2.4
			c-0.4,0-0.9,0-1.3,0c0.1-0.7-0.5-0.4-0.8-0.6C142.4,61.9,141.5,61.9,141.1,61.4z"/>
		<path stroke="#767676" stroke-miterlimit="10" d="M96.7,91.5c-0.1,0.1-0.1,0.2,0,0.3c-0.7,0.2-1.4,0.4-2,0.7
			c-0.3,0.2-0.7,0.2-0.8-0.2c-0.1-0.4,0.2-0.4,0.5-0.5C95.2,91.7,95.9,91.3,96.7,91.5z"/>
		<path fill="#767676" stroke="#767676" stroke-miterlimit="10" d="M199.6,40.7c0-0.3,0.3-0.5,0.1-0.8c0.2-0.5,0.2-1.3,1.2-1.4
			c-1.1,1.4-0.4,1.7,0.8,1.8c0,0.3-0.2,0.4-0.3,0.6C200.8,40.8,200.2,40.7,199.6,40.7z"/>
		<path fill="#767676" stroke="#767676" stroke-miterlimit="10" d="M48.1,15.2c0-0.1,0-0.2,0-0.4c1.8,0,3.6,0,5.5,0
			C53.4,15,53.4,15,53.4,15c0,0,0-0.1,0-0.1c-1.3,0.2-2.7,0.1-4,0.4C48.9,15.4,48.5,15.5,48.1,15.2z"/>
		<path fill="#767676" stroke="#767676" stroke-miterlimit="10" d="M168,90.7c-1.3,0.4-2.5,0.5-3.7-0.3
			C165.5,90.5,166.8,90.2,168,90.7z"/>
		<path fill="#767676" stroke="#767676" stroke-miterlimit="10" d="M231.1,69.1c-1.4-0.3-2.8-0.7-4.2-1
			C228.4,67.9,229.7,68.5,231.1,69.1z"/>
		<path stroke="#767676" stroke-miterlimit="10" d="M155,28c-0.9-0.1-1.8-0.1-2.6-0.4c-0.3-0.1-0.7-0.2-0.5-0.6
			c0.2-0.5,0.5-0.1,0.7,0c0.5,0.2,1.1,0.3,1.6,0.3C154.8,27.3,154.9,27.6,155,28z"/>
		<path stroke="#767676" stroke-miterlimit="10" d="M160.8,28.4c0.1,0.3,0.1,0.5,0.2,0.8c-1.2,0.3-2.3-0.6-3.5-0.6
			C158.6,28,159.7,28.7,160.8,28.4z"/>
		<path stroke="#767676" stroke-miterlimit="10" d="M67.7,71.4c0,0.3,0,0.5,0,0.8c-0.9,0.1-1.7,0.1-2.6,0.2c0-0.1-0.5-0.3,0-0.5
			c0.5-0.2,1.2-0.2,1.6-0.6C67,71.4,67.4,71.4,67.7,71.4z"/>
		<path fill="#767676" stroke="#767676" stroke-miterlimit="10" d="M125.4,14.5c-1.3,0-2.7,0-4,0c0-0.1,0-0.1,0-0.2c1.3,0,2.7,0,4,0
			C125.4,14.4,125.4,14.5,125.4,14.5z"/>
		<path fill="#767676" stroke="#767676" stroke-miterlimit="10" d="M237.7,71.3c1.5,0.3,3,0.5,4.4,1.3
			C240.6,72.2,239.1,71.7,237.7,71.3z"/>
		<path stroke="#767676" stroke-miterlimit="10" d="M235.6,107c-1-0.5-1.2-2-0.4-2.9C235.8,105.1,235.5,106.1,235.6,107z"/>
		<path fill="#767676" stroke="#767676" stroke-miterlimit="10" d="M202.2,79.6c-0.3,0.9-0.8,1.6-1.6,2.3
			C200.8,80.8,201.4,80.2,202.2,79.6z"/>
		<path stroke="#767676" stroke-miterlimit="10" d="M152.1,19.2c-0.8-0.2-0.4-0.8-0.4-1.2c-0.1-0.7,0.2-1.5-0.6-1.9
			c-0.1-0.1-0.1-0.3-0.2-0.4c0.3-0.1,0.6-0.5,1-0.2C152,16.7,151.7,17.9,152.1,19.2z"/>
		<path fill="#767676" stroke="#767676" stroke-miterlimit="10" d="M66.8,96.8c-1,0-1.9,0.3-2.8,0.4C64.9,96.6,65.8,96.4,66.8,96.8z
			"/>
		<path fill="#767676" stroke="#767676" stroke-miterlimit="10" d="M109.1,75.3c-0.3-0.1-0.7,0-0.7-0.5c0-0.4,0.4-0.3,0.7-0.3
			c0.6,0,1.3-0.2,1.5,0.7C110.1,75.6,109.6,75.6,109.1,75.3z"/>
		<path fill="#767676" stroke="#767676" stroke-miterlimit="10" d="M52.9,11.3c-0.3-0.6-0.6-0.3-0.8,0c-0.4,0.7-0.4,0.1-0.5-0.1
			c0.4-0.2,0.8-0.4,1-0.7c0.3-0.3,0.5-0.7,0.9-0.3c0.6,0.5-0.3,0.6-0.3,0.9C53.2,11.2,53,11.3,52.9,11.3z"/>
		<path stroke="#767676" stroke-miterlimit="10" d="M26.7,75.2c-0.2-0.1-0.8,0.1-0.7-0.4c0-0.4,0.4-0.6,0.8-0.5
			c0.5,0.1,1.1,0.2,1.6,0.2c0.5,0,0.3,0.3,0.1,0.6C27.9,75.2,27.3,75.2,26.7,75.2z"/>
		<path stroke="#767676" stroke-miterlimit="10" d="M147.6,40.5c-0.7,0.1-1.4,0.2-2.1,0.2c0-0.2,0-0.4,0-0.6c0.5,0,1-0.2,1.4,0.2
			C147.1,40.4,147.3,40.4,147.6,40.5z"/>
		<path fill="#767676" stroke="#767676" stroke-miterlimit="10" d="M235.1,70.3c-1.4-0.3-2.4-0.6-3.3-1.1
			C232.9,69.5,233.9,69.6,235.1,70.3z"/>
		<path stroke="#767676" stroke-miterlimit="10" d="M152,33.2c0.8,0.9,0.3,1.9,0.3,2.9c0,0.2-0.3,0-0.5,0
			C151.9,35.1,152,34.1,152,33.2z"/>
		<path stroke="#767676" stroke-miterlimit="10" d="M170.4,55.6c-0.1-0.2-0.1-0.3,0-0.5c0.7,0,1.4-0.1,2.1,0.1c0,0.1,0,0.3,0,0.4
			C171.8,55.7,171.1,55.7,170.4,55.6z"/>
		<path stroke="#767676" stroke-miterlimit="10" d="M70.6,72c-0.3-0.3-0.3-0.6-0.2-0.9c0.5-0.2,0.9-0.2,1.4-0.2c0,0.3,0,0.7,0,1
			C71.4,71.9,71,72,70.6,72z"/>
		<path stroke="#767676" stroke-miterlimit="10" d="M64.3,14c-0.5,0.2-0.9,0.5-1.4,0.1c0.3-0.5,0.8-0.8,1.3-1
			c0.5-0.2,0.3,0.2,0.3,0.4C64.3,13.8,64.3,13.9,64.3,14z"/>
		<path fill="#767676" stroke="#767676" stroke-miterlimit="10" d="M52.1,60.2c-0.1-0.2-0.1-0.4-0.2-0.6c0.4-0.3,0.9-0.4,1.4-0.3
			c-0.2,0.4,0.4,0.5,0.3,0.9C53.1,60.4,52.6,60.5,52.1,60.2z"/>
		<path stroke="#767676" stroke-miterlimit="10" d="M233.8,104c0.9,0.7,0.6,1.6,0.2,2.4C233.9,105.5,233.6,104.8,233.8,104z"/>
		<path fill="#767676" stroke="#767676" stroke-miterlimit="10" d="M142.5,8.1c0.8,0,1.4,0.2,1.8,0.9c-0.3,0.3-0.7,0.3-0.9-0.1
			C143.2,8.4,142.7,8.4,142.5,8.1z"/>
		<path stroke="#767676" stroke-miterlimit="10" d="M201.3,40.8c0.1-0.2,0.4-0.3,0.3-0.6c0.1,0,0.2,0,0.3,0c0.2,0.4,0.5,0.4,0.8,0.2
			c0.1,0,0.3,0.1,0.4,0.1c0,0.2,0.1,0.4,0.1,0.5C202.6,41,202,41.2,201.3,40.8z"/>
		<path stroke="#767676" stroke-miterlimit="10" d="M239,48.5c0-0.2,0-0.3,0-0.5c0.7,0.1,1.4,0.3,2.1,0.9
			C240.3,49.2,239.7,48.7,239,48.5z"/>
		<path fill="#767676" stroke="#767676" stroke-miterlimit="10" d="M209.9,66.8c-0.4-0.2-1.1-0.2-1.1-0.9c0-0.3,0.4-0.3,0.6-0.2
			c0.5,0.2,1.1,0.3,1.3,0.9C210.8,66.9,210.2,66.8,209.9,66.8z"/>
		<path stroke="#767676" stroke-miterlimit="10" d="M232.3,97c0.8,0.3,1.1,1.2,0.7,2.1C232.6,98.4,232.4,97.7,232.3,97z"/>
		<path fill="#767676" stroke="#767676" stroke-miterlimit="10" d="M122.9,61.9c0.5-0.2,0.9-0.5,1.4-0.7c0.2-0.1,0.4-0.1,0.5,0.1
			c0.1,0.2-0.1,0.4-0.2,0.5c-0.5,0.2-1,0.7-1.6,0.6C122.9,62.3,122.9,62.1,122.9,61.9z"/>
		<path fill="#767676" stroke="#767676" stroke-miterlimit="10" d="M203,64.4c0.6-0.4,1.2-0.8,2-0.5C204.5,64.8,203.7,64.5,203,64.4
			z"/>
		<path fill="#767676" stroke="#767676" stroke-miterlimit="10" d="M72.1,4.6c-0.4,0.7-1,1.3-1.7,1.7c0.2-0.8,0.9-1.3,1.4-1.9
			C71.9,4.5,72,4.6,72.1,4.6z"/>
		<path fill="#767676" stroke="#767676" stroke-miterlimit="10" d="M68.6,8.1c0.4-0.7,0.9-1.3,1.9-1.8c-0.5,1-1.2,1.5-1.7,2.2
			C68.7,8.3,68.6,8.2,68.6,8.1z"/>
		<path fill="#767676" stroke="#767676" stroke-miterlimit="10" d="M55.8,9.1c0.5-0.6,1.1-0.6,1.5-0.8c0.2-0.1,0.4-0.1,0.4,0.2
			c0,0.2-0.1,0.4-0.3,0.4C57,9,56.5,9,55.8,9.1z"/>
		<path fill="#767676" stroke="#767676" stroke-miterlimit="10" d="M69.8,58.2c-0.7,0.7-1.5,0.8-2.4,0.2
			C68.2,58.1,69,58.2,69.8,58.2z"/>
		<path fill="#767676" stroke="#767676" stroke-miterlimit="10" d="M126.5,127.2c-0.4,0.8-1.2,0.8-2.2,1
			C125.1,127.6,125.8,127.3,126.5,127.2C126.5,127.2,126.5,127.2,126.5,127.2z"/>
		<path fill="#767676" stroke="#767676" stroke-miterlimit="10" d="M228.4,42.2c-0.3-0.1-0.6-0.1-0.9-0.2c-0.2-0.1-0.8,0-0.6-0.5
			c0.1-0.3,0.5-0.2,0.8,0c0.3,0.2,0.6,0.4,0.8,0.6C228.5,42.1,228.5,42.2,228.4,42.2z"/>
		<path fill="#767676" stroke="#767676" stroke-miterlimit="10" d="M161.5,95.9c-0.7,0.3-1.3,0.6-2,0.5
			C160.1,95.9,160.6,95.7,161.5,95.9z"/>
		<path fill="#767676" stroke="#767676" stroke-miterlimit="10" d="M31.5,105.6c0-0.2,0-0.3-0.1-0.5c0.6-0.4,1.1-0.3,1.8,0.1
			C32.5,105.4,32.1,105.8,31.5,105.6z"/>
		<path stroke="#767676" stroke-miterlimit="10" d="M192.2,134.1c0.1,0.2,0.8,0.1,0.3,0.5c-0.5,0.3-1,0.6-1.7,0.5
			c0.1-0.4,0.6-0.3,0.7-0.7C191.8,134.5,192,134.2,192.2,134.1z"/>
		<path fill="#767676" stroke="#767676" stroke-miterlimit="10" d="M183.4,88.8c-0.6,0-1.1,0-1.7,0C183,87.9,183,87.9,183.4,88.8z"
			/>
		<path fill="#767676" stroke="#767676" stroke-miterlimit="10" d="M72.7,58.1c-0.6,0.4-1.2,0.2-1.9,0.1
			C71.4,57.8,72.1,58,72.7,58.1z"/>
		<path fill="#767676" stroke="#767676" stroke-miterlimit="10" d="M208.3,65.5c-0.6,0.3-1.1,0.4-1.6,0c0,0,0-0.2,0-0.3
			C207.4,64.8,207.8,65.4,208.3,65.5z"/>
		<path fill="#767676" stroke="#767676" stroke-miterlimit="10" d="M147.6,40.5c-0.2-0.1-0.5-0.1-0.7-0.2c0.3-0.7,1-0.4,1.5-0.4
			c0,0.2,0,0.3,0,0.5C148.1,40.7,147.8,40.6,147.6,40.5z"/>
		<path fill="#767676" stroke="#767676" stroke-miterlimit="10" d="M218.5,79.1c0.8-0.3,1.4-0.6,2.2-0.6
			C220,79,219.4,79.2,218.5,79.1z"/>
		<path fill="#767676" stroke="#767676" stroke-miterlimit="10" d="M205.4,63.9c0.6-0.3,1.2-0.5,1.7,0.2
			C206.6,64.1,206,64.5,205.4,63.9z"/>
		<path fill="#767676" stroke="#767676" stroke-miterlimit="10" d="M145.5,40.1c0,0.2,0,0.4,0,0.6c-0.1,0.1-0.3,0.2-0.5,0.1
			c-0.2-0.4-0.9,0.1-1-0.5C144.4,39.9,145,40.1,145.5,40.1z"/>
		<path fill="#767676" stroke="#767676" stroke-miterlimit="10" d="M68.5,8.7c-0.4,0.5-0.8,0.9-1.1,1.4c-0.1-0.1-0.2-0.2-0.2-0.3
			c0.2-0.6,0.7-0.9,1.1-1.4C68.3,8.5,68.4,8.6,68.5,8.7z"/>
		<path fill="#767676" stroke="#767676" stroke-miterlimit="10" d="M227.5,89.8c0.4-0.5,0.9-0.6,1.4-0.6
			C228.5,89.4,228.1,89.9,227.5,89.8L227.5,89.8z"/>
		<path stroke="#767676" stroke-miterlimit="10" d="M173.7,55.4c0,0.1,0,0.2,0,0.3c-0.3,0-0.6,0-0.9-0.1c0-0.1,0-0.3,0.1-0.4
			C173.1,55.3,173.4,55.4,173.7,55.4z"/>
		<path fill="#767676" stroke="#767676" stroke-miterlimit="10" d="M185.2,88c0.7-0.4,1.1-0.5,1.6-0.1
			C186.3,88.3,185.9,88.1,185.2,88z"/>
		<path fill="#767676" stroke="#767676" stroke-miterlimit="10" d="M155.5,89.3c-0.5,0.3-0.6-0.4-1-0.4c0.4-0.3,0.7-0.4,1,0
			C155.5,89.1,155.5,89.2,155.5,89.3z"/>
		<path fill="#767676" stroke="#767676" stroke-miterlimit="10" d="M135.9,59.3c0,0.2,0,0.4,0,0.5c-0.3,0.1-0.6,0.2-0.9-0.1
			c0-0.2,0-0.3,0-0.5C135.4,59.2,135.6,59.2,135.9,59.3z"/>
		<path fill="#767676" stroke="#767676" stroke-miterlimit="10" d="M18.7,76c0.3-0.3,0.6-0.2,1,0C19.4,76.5,19,76.4,18.7,76z"/>
		<path fill="#767676" stroke="#767676" stroke-miterlimit="10" d="M117.4,56.3c0,0.2,0,0.3,0,0.5l-0.1,0.1c0,0-0.1,0-0.1,0
			c-0.3,0-0.4-0.4-0.6-0.5C116.9,56.3,117.1,56.1,117.4,56.3z"/>
		<path fill="#767676" stroke="#767676" stroke-miterlimit="10" d="M227.5,89.7c0.1,0.2-0.1,0.4-0.3,0.4c-0.2,0.1-0.4,0-0.7,0.1
			C226.8,89.9,227.1,89.7,227.5,89.7C227.5,89.8,227.5,89.7,227.5,89.7z"/>
		<path fill="#767676" stroke="#767676" stroke-miterlimit="10" d="M163.4,91.3c0.4,0,0.8-0.2,1.1,0.2
			C164.1,91.6,163.7,91.7,163.4,91.3z"/>
		<path fill="#767676" stroke="#767676" stroke-miterlimit="10" d="M7.4,77.8c0.3-0.1,0.5-0.3,0.8-0.1C8,77.9,7.8,78.7,7.4,77.8z"/>
		<path fill="#767676" stroke="#767676" stroke-miterlimit="10" d="M8.9,77.5c0-0.9,0.5,0,0.7-0.2C9.6,78.2,9.1,77.5,8.9,77.5z"/>
		<path fill="#767676" stroke="#767676" stroke-miterlimit="10" d="M64.3,14c0-0.1,0.1-0.3,0.1-0.4c0.4-0.1,0.6,0.1,0.8,0.4
			C64.8,14.3,64.5,14.1,64.3,14z"/>
		<path stroke="#767676" stroke-miterlimit="10" d="M122.9,61.9c0,0.2,0,0.3,0,0.5c-0.2,0-0.6,0.4-0.7,0
			C122.1,62,122.6,62,122.9,61.9z"/>
		<path fill="#767676" stroke="#767676" stroke-miterlimit="10" d="M202.8,40.4c-0.3,0.3-0.6,0.2-0.8-0.2
			C202.3,40.1,202.6,40.2,202.8,40.4z"/>
		<path fill="#767676" stroke="#767676" stroke-miterlimit="10" d="M44.5,8.5c-0.3,0-0.4-0.2-0.4-0.5C44.5,8,44.6,8.1,44.5,8.5z"/>
		<path fill="#767676" stroke="#767676" stroke-miterlimit="10" d="M25.7,106.3c-0.1,0.3-0.3,0.3-0.5,0.2
			C25.2,106.2,25.4,106.1,25.7,106.3z"/>
		<path fill="#767676" stroke="#767676" stroke-miterlimit="10" d="M179,32.3c-0.3,0.2-0.4,0.2-0.6-0.1
			C178.7,31.9,178.9,32.1,179,32.3z"/>
		<path fill="#767676" stroke="#767676" stroke-miterlimit="10" d="M163.7,90.3c-0.2,0.2-0.3,0.2-0.5,0
			C163.4,90.1,163.5,90.1,163.7,90.3z"/>
		<path fill="#767676" stroke="#767676" stroke-miterlimit="10" d="M111,75.1c0.1-0.4,0.4-0.3,0.6-0.1
			C111.5,75.2,111.3,75.3,111,75.1z"/>
		<path fill="#767676" stroke="#767676" stroke-miterlimit="10" d="M65.1,12.5c-0.2,0.3-0.3,0.7-0.7,0.5c-0.2-0.1,0.2-0.4,0.4-0.6
			C64.8,12.4,65,12.5,65.1,12.5z"/>
		<path fill="#767676" stroke="#767676" stroke-miterlimit="10" d="M65.4,11.7c0.1-0.2,0.3-0.5,0.5-0.3c0.2,0.3-0.1,0.5-0.4,0.6
			C65.5,11.9,65.5,11.8,65.4,11.7z"/>
		<path fill="#767676" stroke="#767676" stroke-miterlimit="10" d="M53.8,11.8C53.7,12,53.6,12,53.4,12c0,0-0.1-0.1-0.1-0.1
			C53.5,11.8,53.6,11.8,53.8,11.8C53.8,11.8,53.8,11.8,53.8,11.8z"/>
		<path fill="#767676" stroke="#767676" stroke-miterlimit="10" d="M67,10.4c-0.1,0.2-0.3,0.3-0.4,0.1c-0.2-0.2,0.1-0.3,0.2-0.5
			C66.9,10.2,67,10.3,67,10.4z"/>
		<path fill="#767676" stroke="#767676" stroke-miterlimit="10" d="M68.2,4.6c-0.1,0.1-0.2,0.1-0.3,0.2c0,0-0.1-0.1-0.1-0.1
			C67.9,4.6,68,4.5,68.2,4.6C68.1,4.5,68.2,4.6,68.2,4.6z"/>
		<path stroke="#767676" stroke-miterlimit="10" d="M155.5,89.3c0-0.1,0-0.2,0-0.3c0.2,0.1,0.5-0.1,0.5,0.3
			C156,89.5,155.7,89.3,155.5,89.3z"/>
		<path fill="#767676" stroke="#767676" stroke-miterlimit="10" d="M172.9,55.3c0,0.1,0,0.3-0.1,0.4c-0.1,0-0.2,0-0.2,0
			c0-0.1,0-0.3,0-0.4C172.6,55.3,172.7,55.3,172.9,55.3z"/>
		<path fill="#767676" stroke="#767676" stroke-miterlimit="10" d="M67.3,10.1c-0.1,0.1-0.2,0.2-0.3,0.3c-0.1-0.1-0.2-0.2-0.2-0.4
			c0.1-0.1,0.2-0.2,0.3-0.3C67.2,9.9,67.3,10,67.3,10.1z"/>
		<path fill="#767676" stroke="#767676" stroke-miterlimit="10" d="M221.5,78.2c-0.1,0-0.1,0.1-0.2,0.1c0,0,0,0-0.1,0
			C221.4,78.3,221.5,78.3,221.5,78.2C221.5,78.3,221.5,78.2,221.5,78.2z"/>
		<path fill="#767676" stroke="#767676" stroke-miterlimit="10" d="M68.3,8.4c0.1-0.1,0.2-0.2,0.3-0.3c0.1,0.1,0.2,0.2,0.2,0.3
			c-0.1,0.1-0.2,0.2-0.3,0.3C68.4,8.6,68.3,8.5,68.3,8.4z"/>
		<path fill="#767676" stroke="#767676" stroke-miterlimit="10" d="M64.7,12.4c0.1-0.1,0.2-0.2,0.3-0.2c0,0,0,0.2,0,0.3
			C65,12.5,64.8,12.4,64.7,12.4z"/>
		<path fill="#767676" stroke="#767676" stroke-miterlimit="10" d="M65.6,12c-0.1,0-0.2,0.1-0.3,0c-0.1-0.2,0-0.3,0.1-0.3
			C65.5,11.8,65.5,11.9,65.6,12z"/>
		<path stroke="#767676" stroke-miterlimit="10" d="M232.2,96.5c0.1,0,0.2,0.1,0.2,0.1c-0.1,0-0.1,0.1-0.2,0.1
			C232.3,96.7,232.3,96.6,232.2,96.5z"/>
		<path stroke="#767676" stroke-miterlimit="10" d="M112.7,73.4c-0.1,0-0.2-0.1-0.2-0.1C112.6,73.1,112.6,73.4,112.7,73.4
			C112.7,73.4,112.7,73.4,112.7,73.4z"/>
		<path fill="#FDFDFD" stroke="#767676" stroke-miterlimit="10" d="M200.8,160.3c-0.9-3.6-3.9-4.1-6.8-4.3c-2.8-0.2-5.7-0.1-8.5-0.2
			c-1.9-0.1-3.6,0.7-5.4,0.9c-2.5,0.2-5,0.5-7.6,0c-1.8-0.4-3.8-0.4-5.7-0.3c-1.9,0.1-3.6-0.6-5.4-1.1c-0.6-0.2-1-0.4-1.4,0.1
			c3.9,2,8.3,1.6,12.5,2.1c3.9,0.5,7.7,0.3,11.5-0.7c1.2-0.3,2.5-0.2,3.7-0.2c2.8,0.2,5.7,0,8.4,0.6c1.1,0.2,2.1,0.7,3,1.3
			c1.2,0.8,1.3,3.3,0.1,4.1c-0.2,0.2-0.4,0.2-0.6-0.1c-1.2-1.8-3.1-2.3-5.1-2.7c-5.5-1.1-10.9-0.9-16.4,0.1
			c-3.8,0.6-7.6,0.9-11.3,1.4c-2.7,0.4-5.1-0.3-7.6-1c-0.3-0.1-0.7-0.2-1-0.2c-0.7,0-0.9-0.4-1-1.1c-0.4-1.8,0.3-3.3,0.7-4.8
			c0.2-0.9,0.8-1,1.4-0.7c4.6,1.7,9.4,0.7,14.1,0.8c2.9,0,5.7-0.5,8.6-0.5c2.7,0,5.2-0.7,7.8-0.6c2.9,0.2,5.6,0.8,8.3,1.8
			c2.1,0.8,3.2,2.5,3.9,4.5C201.3,159.8,201.1,160.1,200.8,160.3z"/>
		<path fill="#FDFDFD" stroke="#767676" stroke-miterlimit="10" d="M157.1,164.6c3.1,1.3,6.1,1.3,9.1,0.7c3.2-0.7,6.5-0.9,9.8-1.4
			c2.8-0.4,5.6-0.9,8.4-0.9c3.6,0.1,7.2,0.1,10.8,0.9c0.3,0.1,0.5,0.2,0.9,0.4c-1.4,0.6-2.9,0.5-4.2,0.8c-3.6,1-7.2,1.6-10.9,2.2
			c-3.1,0.5-6.2,1-9.4,0.7c-0.8-0.1-1.3,0.5-2.1,0.4c-4.6-0.6-9.3-0.3-13.9-0.5c-0.4,0-0.9-0.2-1.3-0.3c-0.6-0.1-0.7-0.4-0.6-1
			c0.5-1.9,1-3.9,1.4-5.8c0.1-0.4,0.1-0.5,0.7-0.4c1.1,0.2,2,0.6,3.1,0.9c3.6,1.1,7.2,1,10.9,0.2c2.8-0.6,5.6-0.6,8.4-1.1
			c4.6-0.7,9.1-0.7,13.7-0.2c1.9,0.2,3.8,0.7,5.5,1.7c0.4,0.3,1,0.5,0.7,1.2c-0.3,0.6-1,0.9-1.5,0.6c-2.6-1.4-5.6-1-8.4-1.4
			c-4.7-0.6-9.4,0.4-14,0.8c-3.6,0.3-7,1.4-10.6,1.6c-1.8,0.1-3.6,0.3-5.3-0.5C158,164.1,157.6,164.4,157.1,164.6z"/>
		<path fill="#FDFDFD" stroke="#767676" stroke-miterlimit="10" d="M190.1,147.2c0.4,0.2,0.4,0.2,0.2,0.4c-0.3,0.5,0,0.9,0.8,1.2
			c2.4,0.8,4.8,1.5,7.3,0.3c0.1,0,0.2,0.1,0.3,0.2c-2.8,1.6-5.8,2.3-9.1,2.2c-2.6-0.1-5.2,0.1-7.8,0.2c-1.8,0-4-2.6-3.8-4.3
			c0.3,0,0.4,0.3,0.4,0.6c0.1,0.8,0.9,1.2,1.3,0.9c1.3-0.6,2.8-0.5,4.1-1c0.6-0.2,0.6-0.6,0.5-1c1.3,0.8,2.7,0.7,4.1,0.7
			c0.4,0.4,0.6,0.4,0.8-0.2C189.6,147.4,189.8,147.3,190.1,147.2z"/>
		<path fill="#FDFDFD" stroke="#767676" stroke-miterlimit="10" d="M202.2,161.2c1.1,1.7,2.7,2.7,4.4,3.5c0.2,0.1,0.5,0.2,0.5,0.4
			c0.1,0.3-0.3,0.4-0.5,0.6c-2.4,1.6-5,1.1-7.6,0.4c-0.6-0.1-0.7-0.6-0.1-0.9C200.3,164.2,201.3,162.9,202.2,161.2z"/>
		<path fill="#FDFDFD" stroke="#767676" stroke-miterlimit="10" d="M146.1,121.5c1.4-0.2,2.7,0.3,4,0.2c0.3,0,0.5,0.2,0.5,0.5
			c0.1,1.3,0,2.5-0.3,3.8c-0.1,0.3-0.3,0.6-0.5,0.7c-1.5,0.6-1.3,1.9-1.4,3.2c0,0.5,0.3,1.3-0.3,1.3c-0.8,0-0.2-0.9-0.2-1.3
			c-0.1-1.2,0.1-2.4-1-3.3c-0.7-0.6-0.5-1.5-0.5-2.3C146.4,123.4,146.5,122.5,146.1,121.5z M147.3,123.4c0.2,0.8,0.1,2.1,1,2.3
			c0.6,0.1,0.6-1.2,0.8-1.9c0.1-0.2-0.1-0.5-0.2-0.8c-0.2-0.4-0.4-1-0.9-0.9C147.4,122.3,147.4,122.9,147.3,123.4z"/>
		<path fill="#FDFDFD" stroke="#767676" stroke-miterlimit="10" d="M169.4,122.3c-0.2,1.3-0.4,2.6-1.8,3.3c-0.8,0.4-1.1,1-1.1,1.8
			c0,0.8-0.1,1.7,0.1,2.5c0.1,0.5-0.3,0.7-0.7,0.7c-0.5,0-0.3-0.5-0.3-0.7c0.2-0.9,0.3-1.9,0.6-2.8c0.2-0.8,0-1.4-0.6-1.9
			c-0.7-0.7-1-2.9-0.6-3.8c0.2-0.4,0.4-0.4,0.8-0.4c0.9,0.1,1.8,0.2,2.7,0.1C169.3,121,169.5,121.5,169.4,122.3z M167.1,124
			c0.6,0.1,0.7-0.3,0.6-0.7c-0.1-1.1-1.1-0.9-1.7-1.2c-0.4-0.2-0.4,0.2-0.4,0.4C165.8,123.3,166.3,123.8,167.1,124z"/>
		<path fill="#FDFDFD" stroke="#767676" stroke-miterlimit="10" d="M221.7,150.4c1.6,0.9,3.3,0.7,5.1,0.4c0.4,0,0.7,0.6,1.2,0.4
			c0.3,0.5,0.8,0.3,1.3,0.3c2,0,4,0,5.9,0c0.4,0,0.9-0.1,0.9,0.6c-3.5,0.1-6.9-0.3-10.3-0.5c-1.1-0.1-2.2-0.1-3.3,0.1
			c0-0.2-0.1-0.4-0.3-0.3C222,151,221.6,150.8,221.7,150.4z"/>
		<path fill="#FDFDFD" stroke="#767676" stroke-miterlimit="10" d="M160,121c0.5,0.4,1,0.9,1,1.7c0.1,2.5,0.4,5.1,0.3,7.6
			c0,0.3,0.1,0.8-0.5,0.8c-0.6,0-0.4-0.5-0.4-0.8c0-2-0.1-4-0.1-6.1c0-0.8-0.2-1.6-0.5-2.3c0-0.2,0-0.5,0-0.7
			C159.9,121.1,159.9,121.1,160,121z"/>
		<path fill="#FDFDFD" stroke="#767676" stroke-miterlimit="10" d="M158.1,118.6c-0.4-1.7-0.1-3.4-0.1-5.1c0-0.9,0.1-1.8,0.4-2.7
			c0.4,2.6-0.3,5.1,0.1,7.7C158.4,118.6,158.2,118.6,158.1,118.6z"/>
		<path fill="#767676" stroke="#767676" stroke-miterlimit="10" d="M229.9,152.5c-1.3,0.7-2.7,0.4-4.1,0.2
			C227.1,152.2,228.5,152.5,229.9,152.5z"/>
		<path fill="#767676" stroke="#767676" stroke-miterlimit="10" d="M158.1,118.6c0.1,0,0.3,0,0.4-0.1c0.5,0.3,0.5,0.9,0.6,1.4
			c-0.1,0.1-0.2,0.2-0.3,0.3C158.2,119.9,158.2,119.3,158.1,118.6z"/>
		<path fill="#767676" stroke="#767676" stroke-miterlimit="10" d="M237,154.5c-1.1,0.2-1.8,0.1-2.5-0.4
			C235.2,154.1,236,153.8,237,154.5z"/>
		<path fill="#FDFDFD" stroke="#767676" stroke-miterlimit="10" d="M214.1,154c0.4-0.5,1-0.3,1.4-0.6c0.2-0.1,0.4-0.1,0.5,0.2
			c0,0.3-0.2,0.4-0.4,0.4C215.2,154.1,214.7,154.2,214.1,154z"/>
		<path fill="#FDFDFD" stroke="#767676" stroke-miterlimit="10" d="M158.8,120.2c0.1-0.1,0.2-0.2,0.3-0.3c0.3,0.4,0.6,0.7,0.9,1.1
			c0,0.1-0.1,0.1-0.2,0.2c-0.2,0-0.3,0-0.5,0C159.2,120.9,159,120.6,158.8,120.2z"/>
		<path fill="#767676" stroke="#767676" stroke-miterlimit="10" d="M189.4,147.4c-0.2,0.5-0.4,0.6-0.8,0.2
			C188.8,147.3,189.1,147.3,189.4,147.4z"/>
		<path fill="#767676" stroke="#767676" stroke-miterlimit="10" d="M159.4,121.2c0.2,0,0.3,0,0.5,0c0,0.2,0,0.5,0,0.7
			C159.4,121.9,159.3,121.6,159.4,121.2z"/>
		<path fill="#767676" stroke="#767676" stroke-miterlimit="10" d="M222.2,151.3c0.3,0,0.3,0.1,0.3,0.3c-0.1,0.2-0.3,0.1-0.4,0
			C222,151.6,222,151.5,222.2,151.3z"/>
		<path fill="#767676" stroke="#767676" stroke-miterlimit="10" d="M44.9,20.9c0.8,0.4,1.5,0.9,0.6,1.9c-0.3,0.3,0.1,0.7,0.2,1.1
			c0.2,0.8,1,1.7-0.3,2.4c-0.3,0.2-0.1,0.4,0.1,0.6c0.8,1.1,0.8,1.1-0.7,1.3c1.5,1.4,1.4,3.2,1.4,4.8c-0.1,1.3,0.4,2.7-0.5,4
			c-0.5,0.7-0.1,1.6-0.2,2.3c0,0.5,0,1-0.3,1.4c-0.4,0.4-0.6,2.2-0.3,2.6c0.3,0.4,0.3-0.2,0.5-0.1c0.4,1,0.2,1.9,0,2.9
			c-0.2,1.8,0.3,3.5-0.2,5.3c-0.5,2.1-0.3,4.2-0.1,6.4c0.1,0.8-0.5,1.7,0.5,2.3c0.2,0.1-0.1,0.4-0.3,0.4c-0.4,0.1-0.4,0.4-0.4,0.7
			c0,0.7-0.2,1.3-1,0.8c-0.7-0.4-0.6,0.4-1.1,0.4c-1.8,0-3.6,0-5.3,0.6c-0.1,0-0.1-0.1-0.2-0.1c-1.1-0.4-2.2-0.6-3.4-0.1
			c-1.1,0.4-2.5-0.4-3.5,1c-0.2,0.3-1.4-0.3-2.2-0.3c-1.6,0-3.1,0.3-4.6,0.7c-0.6,0.2-0.9-0.3-1.2-0.6c0.2-0.6,0.7-0.4,0.9-0.4
			C23,63,22.6,63,22.6,62.5c0-0.1,0.4-0.2,0.7-0.4c0.6-0.2,1.2-0.5,1.8-0.7c0.1,0,0.2-0.1,0.2-0.1c2.1,0.5,4.1-0.4,6.2-0.2
			c-0.1,0.3-0.1,0.7,0.4,0.7c0.9-0.1,2,0,2.7-0.8c0.8-0.5,1.6-0.7,2.5-0.4c-0.1,0.3,0.1,0.5,0.3,0.7c-0.2,0.4-0.3,1,0.3,0.7
			c0.8-0.4,1.6-0.2,2.3-0.3c0.8-0.2,1.7-0.4,2.5-0.6c-0.3-0.5-0.9-0.3-1.2-0.5c0.7-0.5,1.7,0.1,2.2-0.6c0.5-0.7-0.1-1.5-0.1-2.3
			c0.3-3.3,0.4-6.6,0.3-10c-0.1-2.6,0.2-5.3,0.4-8c0.3-3.9,0.4-7.9,0.1-11.8C44,25.5,44.6,23.2,44.9,20.9z M29.1,61.7
			c-0.6-0.1-1.3-0.2-1.9,0.3c-0.1,0.1-0.3,0.2-0.2,0.4c0.1,0.1,0.2,0.3,0.4,0.2c0.9-0.5,1.8-0.4,2.8-0.2c0.3,0.1,0.5-0.1,0.5-0.4
			c0-0.3-0.3-0.4-0.5-0.4C29.8,61.7,29.5,61.7,29.1,61.7z"/>
		<path stroke="#767676" stroke-miterlimit="10" d="M23.3,62.2c-0.2,0.1-0.7,0.2-0.7,0.4c0,0.5,0.4,0.5,0.6,0.7
			c-0.2,0-0.7-0.2-0.9,0.4c-0.3,0-0.6,0-0.9,0.1c-0.2-0.2-0.3-0.8-0.8-0.3c-0.2,0.1-0.5,0-0.7,0.2c-0.2-0.1-0.4-0.1-0.5,0.1
			c-1,0.9-2,0.6-3.2,0.5c-1.8-0.3-3.7-0.1-5.5,0c-1.3,0.1-2.6,0.6-4,0.2c0-0.2,0-0.3,0.1-0.5c1.1-0.4,2.2-0.5,3.3-0.5
			c2.7,0,5.5,0,8.2-0.7c1.5-0.4,3.1-0.1,4.5-0.7C23,61.9,23.2,61.9,23.3,62.2z"/>
		<path stroke="#767676" stroke-miterlimit="10" d="M41.2,60.6c0.3,0.2,0.9,0,1.2,0.5c-0.9,0.2-1.7,0.4-2.5,0.6
			c-0.8-0.9-1.8-0.2-2.7-0.3C37,61.2,36.9,61,37,60.7c0.1,0,0.3-0.1,0.4-0.1c0.2,0.1,0.4,0.2,0.6,0.1c0.2,0,0.4,0,0.6,0
			c0.2,0.1,0.4,0.1,0.5,0C39.8,60.6,40.5,60.6,41.2,60.6z"/>
		<path stroke="#767676" stroke-miterlimit="10" d="M34.5,61c-0.7,0.9-1.8,0.7-2.7,0.8c-0.5,0.1-0.4-0.4-0.4-0.7
			c0.4-0.1,0.8-0.1,1.2-0.2c0.2,0.2,0.5,0.2,0.7,0C33.7,61,34.1,61,34.5,61z"/>
		<path stroke="#767676" stroke-miterlimit="10" d="M3.6,64.6c-0.1-0.1-0.1-0.3-0.2-0.4c0.7-0.3,1.4-0.4,2.1-0.3
			c0.1,0.2,0.2,0.3,0.2,0.5C5,64.5,4.3,64.6,3.6,64.6z"/>
		<path fill="#767676" stroke="#767676" stroke-miterlimit="10" d="M5.7,64.3c-0.1-0.2-0.2-0.3-0.2-0.5c0.4-0.3,0.9-0.2,1.3,0
			c0,0.2,0,0.3-0.1,0.5C6.4,64.5,6.1,64.4,5.7,64.3z"/>
		<path fill="#767676" stroke="#767676" stroke-miterlimit="10" d="M33.4,61c-0.2,0.2-0.5,0.2-0.7,0C32.9,60.8,33.1,60.8,33.4,61z"
			/>
		<path fill="#767676" stroke="#767676" stroke-miterlimit="10" d="M38,60.6c-0.2,0.1-0.4,0.1-0.6-0.1C37.6,60.3,37.8,60.3,38,60.6z
			"/>
		<path fill="#767676" stroke="#767676" stroke-miterlimit="10" d="M39.1,60.6c-0.2,0.1-0.3,0.1-0.5,0
			C38.7,60.3,38.9,60.3,39.1,60.6z"/>
		<path fill="#767676" stroke="#767676" stroke-miterlimit="10" d="M77.8,63.3c-1.3,0.5-2.6,0.3-3.9,0.2c-0.7-0.1-1.4-0.1-2.1,0.1
			c-0.8,0.2-1.6,0.4-2.5,0.2c-0.4-0.1-1-0.2-1,0.6c-0.1,0.1-0.3,0.1-0.4,0c0.1-1.3-0.9-0.7-1.4-0.7c-0.8-0.1-0.8,0.3-0.3,0.8
			c-0.7,0.3-1.5,0.5-2.2-0.1c0.1-0.2,0.3-0.3,0.4-0.5c-0.2-0.2-0.3-0.5-0.7-0.4c-0.4,0.2-0.9,0.1-1.3,0c-1.1,0-2.2-0.5-3.2,0.2
			c-0.3,0.1-0.7,0.2-0.7,0.7c-0.8,0.5-1.6,0.3-2.5,0.2c-0.1-0.3-0.2-0.6-0.3-0.9c-0.1-0.3,0-0.6,0.3-0.6c1.2,0.1,2.4-0.2,3.5-0.6
			c0.6-0.2,1.3,0,1.9,0c3,0.3,6.1,0.3,9.1,0.3c1.5,0,2.9-0.7,4.4-0.8c0.4,0,0.9-0.5,1,0.3c-0.3,0.3-0.7,0.3-1.1,0.3
			c-0.2,0-0.5-0.1-0.5,0.3c0.1,0.2,0.3,0.2,0.5,0.2c1-0.1,1.9-0.5,2.9-0.3C77.9,63,77.9,63.2,77.8,63.3z"/>
		<path fill="#767676" stroke="#767676" stroke-miterlimit="10" d="M16.6,69.3c-0.1-0.4,0.7-0.5,0.4-1c2.3-0.5,4.7-0.6,7-0.7
			c2-0.1,4-0.4,5.9-0.8c0.8-0.1,1.8,0.4,2.1-0.9c0.7,0.5,1.7-0.3,2.2,0.6c-0.9,0.2-1.8,0.2-2.4,1c-1.6,0.2-3.1,0.3-4.7,0.5
			c-1.1,0.1-2.5,0-3.6,0.6c-0.3,0.2-0.6,0.2-0.8,0c-0.5-0.5-1.1-0.3-1.6-0.2c-0.9,0.2-1.9-0.4-2.8,0.3c-0.4,0.4-0.8,0.9-1.4,0.9
			c-0.4,0-0.9,0.1-1.3-0.3C16.1,69.3,16.4,69.3,16.6,69.3z"/>
		<path stroke="#767676" stroke-miterlimit="10" d="M55.9,63.7c0.1,0.3,0.2,0.6,0.3,0.9c-2.6,0.4-5.1,1-7.8,1
			c-1.1,0-2.3,0.1-3.4,0.2c0.2-0.1,0.5-0.1,0.4-0.5c1.9-0.3,3.6-1.4,5.6-0.9c1,0.2,1.9-0.4,2.9-0.5C54.6,63.8,55.2,63.8,55.9,63.7z"
			/>
		<path stroke="#767676" stroke-miterlimit="10" d="M32,67.6c0.6-0.8,1.5-0.8,2.4-1c1.4-0.6,3-0.3,4.5-0.6c0.3-0.1,0.5-0.2,0.8-0.2
			c0.2,0.1,0.3,0.1,0.4-0.1c0.3,0,0.5-0.1,0.8-0.1c0.7,0.3,1.4-0.2,2.2,0.1c0.2,0.1,0.3-0.2,0.3-0.4c0.2-0.2,0.4-0.2,0.6-0.2
			c-0.2,0.3,0.1,0.6,0.2,0.8c-3.1,0.8-6.2,0.7-9.3,1.2C33.8,67.3,32.9,67.4,32,67.6z"/>
		<path fill="#767676" stroke="#767676" stroke-miterlimit="10" d="M44.1,65.9c-0.1-0.2-0.4-0.5-0.2-0.8c0.3-0.2,0.9,0.2,0.9-0.3
			c0-0.5-0.5-0.3-0.9-0.3c-0.8,0.1-1.2-0.5-1.5-1.2c1.5-0.3,2.9-0.3,4.3-0.3c-0.1,1-1.2,1.4-1.3,2.3c0.1,0.3-0.2,0.3-0.4,0.5
			C44.7,66,44.4,66,44.1,65.9z M44.7,64.1c0.2-0.1,0.7,0.3,1.1-0.2c0.1-0.1,0.1-0.3-0.1-0.4c-0.4-0.2-0.9-0.2-1.4,0
			c-0.2,0.1-0.5,0.1-0.7,0.1c-0.2,0-0.3,0.1-0.3,0.3c0,0.1,0.2,0.3,0.3,0.3C43.9,64.2,44.2,64.1,44.7,64.1z"/>
		<path stroke="#767676" stroke-miterlimit="10" d="M58.7,64.4c0-0.5,0.4-0.5,0.7-0.7c1.1,0.4,2.1-0.4,3.2-0.2
			c0.4,0.1,0.8,0.2,1.3,0c0.3-0.1,0.5,0.2,0.7,0.4c-0.1,0.2-0.3,0.3-0.4,0.5C62.3,64.4,60.5,64.4,58.7,64.4z"/>
		<path fill="#767676" stroke="#767676" stroke-miterlimit="10" d="M44.4,72.8c-1.4,0.4-2.9,0-4.3,0.7c-0.5,0.3-0.4-0.4-0.5-0.8
			C41.2,72.6,42.8,72.3,44.4,72.8z"/>
		<path stroke="#767676" stroke-miterlimit="10" d="M23.3,74.4c0.4,0.3,1.1,0.1,1.4,0.9c-1.2-0.1-2.4-0.3-3.5-0.4
			c-0.3,0-0.3-0.2-0.3-0.4C21.7,74.5,22.5,74.4,23.3,74.4z"/>
		<path fill="#767676" stroke="#767676" stroke-miterlimit="10" d="M90.5,67.2c0,0.2,0,0.3,0,0.5c-1.1,0-2,1-3.1,0.8
			C88.4,68.2,89,66.7,90.5,67.2z"/>
		<path stroke="#767676" stroke-miterlimit="10" d="M66.2,64.5c-0.5-0.5-0.6-0.9,0.3-0.8c0.5,0.1,1.5-0.6,1.4,0.7
			C67.4,64.4,66.8,64.4,66.2,64.5z"/>
		<path fill="#767676" stroke="#767676" stroke-miterlimit="10" d="M1.4,78.1c-0.3,0.3-0.5,0.4-0.7,0c0.1-0.2,0.1-0.6,0.4-0.6
			C1.4,77.5,1.3,77.9,1.4,78.1z"/>
		<path fill="#767676" stroke="#767676" stroke-miterlimit="10" d="M87.1,69.2c-0.2,0.1-0.4,0.2-0.5-0.1C86.9,68.8,87,69,87.1,69.2z
			"/>
		<path fill="#767676" stroke="#767676" stroke-miterlimit="10" d="M9.1,76.6C9.1,76.6,9,76.7,9,76.8c0,0-0.1-0.1-0.1-0.1
			C8.9,76.6,9,76.6,9.1,76.6z"/>
		<path fill="#767676" stroke="#767676" stroke-miterlimit="10" d="M83.2,61.4c0.2,0.6,0.6,0.3,1,0.2c0.6-0.2,1.1-0.3,1.7-0.5
			c0.4-0.1,0.6,0.1,0.8,0.4c0.1,0.2,0,0.5-0.1,0.5c-1.2-0.2-1.7,1.3-2.8,1.2c-0.5,0-1.3,0.5-1.4-0.6c0-0.3-0.5,0.2-0.8,0.2
			c-0.1,0-0.3-0.1-0.4-0.1c0-0.3,0-0.5,0-0.8C81.7,61.3,82.5,61.4,83.2,61.4z"/>
		<path stroke="#767676" stroke-miterlimit="10" d="M81.1,61.8c0,0.3,0,0.5,0,0.8c-1,0.1-2.1,0.2-3.1,0.3c-1-0.2-2,0.2-2.9,0.3
			c-0.2,0-0.4,0.1-0.5-0.2c-0.1-0.4,0.2-0.3,0.5-0.3c0.4,0,0.8,0,1.1-0.3c0.4,0.1,0.7,0,1.1-0.1c0.2,0.2,0.4,0.2,0.6-0.1
			C78.9,62,80,61.8,81.1,61.8z"/>
		<path fill="#767676" stroke="#767676" stroke-miterlimit="10" d="M6.4,64.9c0.2,0,0.5-0.1,0.7,0c0.2,0,0.5,0.1,0.5,0.4
			c0,0.3-0.3,0.3-0.5,0.4c-0.2,0-0.5,0.1-0.7,0.1c-0.4,0.1-0.9,0.2-1.2-0.1c-0.1,0-0.1-0.3,0-0.3C5.5,64.9,5.9,64.6,6.4,64.9z"/>
		<path fill="#767676" stroke="#767676" stroke-miterlimit="10" d="M43.3,65.3c0,0.2-0.1,0.5-0.3,0.4c-0.7-0.3-1.5,0.2-2.2-0.1
			c0.1-0.8,0.9-0.3,1.3-0.7C42.6,64.2,42.9,65.2,43.3,65.3z"/>
		<path fill="#767676" stroke="#767676" stroke-miterlimit="10" d="M19.4,63.7c0.2-0.2,0.3-0.2,0.5-0.1c0.2,0,0.4,0.1,0.6,0.1
			c0.1,0.1,0.3,0.2,0.4,0.3c-0.3,0.5-0.7,0.7-1.3,0.5C19.2,64.4,19.2,64,19.4,63.7z"/>
		<path fill="#767676" stroke="#767676" stroke-miterlimit="10" d="M20.6,63.4c0.5-0.5,0.5,0.1,0.8,0.3c0,0.3-0.2,0.4-0.5,0.4
			c-0.1-0.1-0.3-0.2-0.4-0.3C20.6,63.6,20.6,63.5,20.6,63.4z"/>
		<path fill="#767676" stroke="#767676" stroke-miterlimit="10" d="M57,59.9c0.3-0.1,0.5,0,0.7,0.2C57.3,60.5,57.1,60.4,57,59.9z"/>
		<path fill="#767676" stroke="#767676" stroke-miterlimit="10" d="M40.1,65.7c-0.1,0.2-0.3,0.2-0.4,0.1c0.1-0.1,0.1-0.3,0.2-0.3
			C40,65.4,40.1,65.5,40.1,65.7z"/>
		<path fill="#767676" stroke="#767676" stroke-miterlimit="10" d="M77.8,62.1c-0.1,0.3-0.4,0.3-0.6,0.1
			C77.3,61.9,77.5,61.8,77.8,62.1z"/>
		<path fill="#FDFDFD" stroke="#767676" stroke-miterlimit="10" d="M242.4,120.2c-0.1,0.4,0.1,0.7,0.3,1c0.3,2,0.8,4,0.7,6
			c0,2.7-0.9,5.2-1.9,7.6c-0.7,1.1-1.1,2.3-1.7,3.5c-0.6,1.2-1.4,2.4-2.2,3.6c-2.1,3.3-4.6,6.2-7.8,8.4c-0.5,0.4-1.1,0.7-1.7,0.3
			c-0.8-1.3-2.1-2.1-3-3.4c-1.2-1.8-2.4-3.7-3-5.8c-1.3-5.3-0.9-10.4,1.9-15.2c2.2-3.8,4.9-7,8.8-9c2.1-1,4.2-1.9,6.6-0.7
			C241.1,117.4,241.6,118.9,242.4,120.2z"/>
		<path fill="#FDFDFD" stroke="#767676" stroke-miterlimit="10" d="M78,62.9c1-0.1,2.1-0.2,3.1-0.3c0.1,0,0.3,0.1,0.4,0.1
			c-0.6,0.8-1.5,0.5-2.3,0.7c-0.4,0.1-0.9,0-1.4,0C77.9,63.2,77.9,63,78,62.9z"/>
		<path fill="#FDFDFD" stroke="#767676" stroke-miterlimit="10" d="M45.3,43.1c-0.2-0.1-0.2,0.5-0.5,0.1c-0.2-0.4,0-2.2,0.3-2.6
			C45.1,41.4,45.2,42.3,45.3,43.1z"/>
		<path fill="#FDFDFD" stroke="#767676" stroke-miterlimit="10" d="M46.9,11.8c0.4-0.1,0.8-0.6,1.3-0.2c-0.2,0.7-0.8,0.3-1.2,0.5
			C47,12,46.9,11.9,46.9,11.8z"/>
		<path stroke="#767676" stroke-miterlimit="10" d="M193.4,134C193.4,134.1,193.4,134.1,193.4,134c-0.1,0-0.1,0-0.2,0
			C193.3,134,193.3,134,193.4,134C193.3,134,193.4,134,193.4,134z"/>
		<path fill="#767676" stroke="#767676" stroke-miterlimit="10" d="M151.9,39.3C151.9,39.3,151.9,39.2,151.9,39.3
			c-0.1-0.1,0-0.1,0-0.1c0,0,0.1,0,0.1,0.1C152,39.3,152,39.3,151.9,39.3z"/>
		<path fill="#767676" stroke="#767676" stroke-miterlimit="10" d="M147.3,123.4c0.1-0.5,0.1-1.2,0.7-1.3c0.6-0.1,0.8,0.5,0.9,0.9
			c0.1,0.2,0.3,0.6,0.2,0.8c-0.2,0.7-0.2,2-0.8,1.9C147.4,125.6,147.5,124.3,147.3,123.4z"/>
		<path fill="#767676" stroke="#767676" stroke-miterlimit="10" d="M167.1,124c-0.9-0.1-1.4-0.7-1.5-1.5c0-0.2-0.1-0.7,0.4-0.4
			c0.6,0.3,1.7,0.2,1.7,1.2C167.8,123.6,167.8,124.1,167.1,124z"/>
		<path stroke="#767676" stroke-miterlimit="10" d="M29.1,61.7c0.4,0,0.8-0.1,1.1-0.1c0.2,0,0.5,0.1,0.5,0.4c0,0.2-0.3,0.4-0.5,0.4
			c-1-0.2-1.9-0.3-2.8,0.2c-0.2,0.1-0.3,0-0.4-0.2c-0.1-0.2,0.1-0.3,0.2-0.4C27.8,61.5,28.4,61.6,29.1,61.7z"/>
		<path fill="#FDFDFD" stroke="#767676" stroke-miterlimit="10" d="M37.3,61.3c0.9,0.1,1.9-0.5,2.7,0.3c-0.8,0.2-1.5,0-2.3,0.3
			C37,62.3,37.1,61.7,37.3,61.3z"/>
		<path fill="#FDFDFD" stroke="#767676" stroke-miterlimit="10" d="M20.6,63.4c0,0.1-0.1,0.2-0.1,0.3c-0.2,0-0.4-0.1-0.6-0.1
			C20.1,63.4,20.4,63.4,20.6,63.4z"/>
		<path fill="#FDFDFD" stroke="#767676" stroke-miterlimit="10" d="M62.6,63.5c-1.1-0.2-2.1,0.6-3.2,0.2
			C60.4,63,61.5,63.6,62.6,63.5z"/>
		<path fill="#FDFDFD" stroke="#767676" stroke-miterlimit="10" d="M44.7,64.1c-0.5,0.1-0.8,0.1-1,0.1c-0.1,0-0.2-0.2-0.3-0.3
			c-0.1-0.2,0.1-0.3,0.3-0.3c0.2,0,0.5,0,0.7-0.1c0.5-0.2,0.9-0.2,1.4,0c0.2,0.1,0.2,0.3,0.1,0.4C45.4,64.4,44.9,64,44.7,64.1z"/>
	</g>
</g>
<g id="Layer_2">
	<path fill="none" stroke="#767676" stroke-miterlimit="10" d="M171.9,89.8c0,0,16.6-31.3,35.3-25.7s25.9,26.1,28.1,45.1
		c15.5,4.5,23.9,6.5,23.9,6.5l-1.7-61.2c0,0-45.2-18.6-98.7-15.6S81.1,53.5,81.1,53.5l-3.6,3.7l13.2,5v7.7l21.7,4.2
		c0,0,5.2-16.7,24.2-14.2s17.9,29,17.9,29l18,2.5L171.9,89.8z"/>
	<path fill="none" stroke="#767676" stroke-miterlimit="10" d="M90.7,62.2c0,0,51.9-13.3,96.1-5.3s72.4,20.1,72.4,20.1"/>
	<line fill="none" stroke="#767676" stroke-miterlimit="10" x1="-5.7" y1="65.3" x2="77.5" y2="57.2"/>
	<line fill="none" stroke="#767676" stroke-miterlimit="10" x1="-4" y1="71.3" x2="87.9" y2="61.9"/>
	<line fill="none" stroke="#767676" stroke-miterlimit="10" x1="-4" y1="79" x2="90.7" y2="69.9"/>
	<path fill="none" stroke="#767676" stroke-miterlimit="10" d="M-5.7,89.4c0,0,25.6-3.7,30.8-4.7c5.2-1,20.5-2.8,20.5-2.8
		s9.4,0.6,15.7-0.6s19.2-3,21.2-3.4c1.9-0.4,14.1-2.8,14.1-2.8l12.7-1.5"/>
	<polyline fill="none" stroke="#767676" stroke-miterlimit="10" points="-2,114 33.2,105.2 71.2,97 109.5,89.5 126.5,84.6 
		152.7,79.4 	"/>
	<path fill="none" stroke="#767676" stroke-miterlimit="10" d="M224.6,76.7c0,0-42,12.3-47.4,13.7c-5.4,1.3-21.9,8.3-28.9,9.9
		s-33.9,7-33.9,7L86,119.2l-30.4,10.7l-41,17.7L-4,156.9"/>
	<path fill="none" stroke="#767676" stroke-miterlimit="10" d="M229,89.2c0,0-42.1,15.3-44.4,15.5c-2.2,0.3-28.5,7.4-28.5,7.4
		l-31,16.8l-39.6,18.9l-68.4,28.5"/>
	<path fill="none" stroke="#767676" stroke-miterlimit="10" d="M235.3,109.2l-28.2,17.7c0,0-21.3,9.9-26.2,12.1
		c-4.9,2.2-31.4,14.4-31.4,14.4L112.7,172"/>
	<polyline fill="none" stroke="#767676" stroke-miterlimit="10" points="44.1,59.8 46.1,12.5 46.2,11.4 34.3,-3.6 18,-3.6 -4,14.3 
		46.9,11.8 77.3,0.2 134.2,0.2 150.8,13.9 151.9,39.3 	"/>
	<polyline fill="none" stroke="#767676" stroke-miterlimit="10" points="149.6,14.4 63.4,14.5 47,12.1 	"/>
	<polyline fill="none" stroke="#767676" stroke-miterlimit="10" points="62.8,58 62.8,14.2 77.5,1 	"/>
	<polyline fill="none" stroke="#767676" stroke-miterlimit="10" points="151.9,27 169.6,30.7 196.7,40.1 	"/>
	<line fill="none" stroke="#767676" stroke-miterlimit="10" x1="169.9" y1="38.9" x2="169.6" y2="30.7"/>
	<polyline fill="none" stroke="#767676" stroke-miterlimit="10" points="199.7,39.8 204,33.8 208.5,41.1 	"/>
	<line fill="none" stroke="#767676" stroke-miterlimit="10" x1="205" y1="33.9" x2="256.8" y2="50.1"/>
</g>
<g id="Layer_4">
	<path fill="#FFFFFF" stroke="#767676" stroke-miterlimit="10" d="M218.5,104l2.9,6.3c0,0-1.1,7.4-18.1,7.8
		c-1.7,1.8-4.2,5.6-4.2,5.6s10.6,1.2,11.2,10.4c-0.8,6.2-4.7,13.7-15.5,17.5l-3.1,0.7l-9,0.5l-5.7-4.8l4.4-5.6c0,0,7.9,15,22.2-7.8
		c0,0,3.9-5.1-4.4-6.4c-2.5-0.2-8.7,0.2-8.7,0.2s-2,0.3-1-1.1c1.9-1.4,10.2-12.4,10.2-12.4s11.1-1.7,14.8-5.7
		C214.5,109.2,217.4,105.8,218.5,104z"/>
	<path fill="none" stroke="#767676" stroke-miterlimit="10" d="M237,115.1"/>
	<path fill="#FFFFFF" stroke="#767676" stroke-miterlimit="10" d="M219.3,124.3c0,0,6.8-13.2,19.3-13.1c12.5,0.1,9.5,17.2,9.5,17.2
		s-2.6,17.3-12.4,23.1l-2,1.5l-11.7-0.4C222,152.7,211.1,142.2,219.3,124.3z"/>
	<path fill="#FFFFFF" stroke="#767676" stroke-miterlimit="10" d="M237.3,116c0,0,10.8,1.1,4.1,18.9c-5.4,9.3-8.4,15.8-12.5,16
		c0,0-7.3-2.2-7.6-14.3C221.4,136.5,221.8,116.3,237.3,116z"/>
</g>
<g id="Layer_3">
	<path fill="#FFFFFF" stroke="#767676" stroke-miterlimit="10" d="M204.3,159.4c2.1-1.3,4.3-2.3,6.7-3c5.3-1.6,10.7-2.3,16.3-2.2
		c2.4,0.1,4.7,0.6,7,0.8c4.4,0.4,8.8,0.3,13.1-0.4c2.5-0.4,5-0.6,7.3-1.7c0.1-0.1,0.3,0,0.5,0.1v-4.6c-0.3-0.3-0.4,0-0.5,0.1
		c-1.4,1-2.8,2.2-4.5,2.7c-4.5,1.2-21,0.4-24.5,0.1c-1.1-0.1-11.6,1.5-14.6,2.5c-2.9,0.9-5.7,1.9-7.6,4.4c-0.2,0.3-0.5,0.6-0.9,0.5
		c-0.4-0.2-0.3-0.6-0.3-0.9c0.1-0.9-0.1-1.8-0.9-2.3c-1.6-0.9-7.7-3.4-8.3-3.5c-3.3-0.4-15.1,0-16.1,0c-3,0-5.9-0.1-8.9,0
		c-2.8,0.1-5.5-0.4-8.3-0.8c-2-0.3-2-0.5-1.4-2.4c0,0,0.1-0.1,0.1-0.1c0.1-1.5,0.8-3-0.5-4.3c-0.6-0.6-1-1.2-0.6-2
		c0.5-0.8,0.8-1.8,2.1-1.9c2.8-0.2,5.5-0.7,8.3-1.2c1.3-0.2,2.8-0.6,3.6-1.7c0.7-0.9,1.5-1.2,2.5-1.3c2.1-0.2,3.1-2.4,2.1-4.3
		c-0.3-0.6-0.8-0.9-1.5-0.9c-1.1,0-2.2,0-3.2,0c-1.3,0-2.4-0.5-3.5-0.9c-0.9-0.3-0.5-3.7,0.4-4.2c1.6-1,2.1-2.5,2.1-4.2
		c0-1.1-0.5-1.6-1.5-1.5c-1.2,0.1-2.4,0-3.6-0.2c-0.4-0.1-0.7,0-0.9,0.4c-0.4,0.7-0.5,3.7,0.1,4.2c1.7,1.5,1,3.3,0.5,5
		c-0.3,1.2-1.5,0.7-2.3,0.7c-0.9,0-0.6-0.7-0.6-1.2c0-1.8,0-3.5,0-5.3c0-1.2-0.1-2.5-1.1-3.4c-1.1-1-1.5-2.3-1.5-3.8
		c0-2.4,0.1-4.7,0.2-7.1c0-2.3-0.4-2.7-2.5-3.4c-0.9-0.3-1.2,0.1-1.1,0.8c0.2,3.2-1,6.2-1.1,9.4c0,1.4-0.3,2.7-1.5,3.8
		c-0.4,0.3-0.6,0.9-0.7,1.5c-0.6,2.6-1.1,5.3-1,8c0,0.7-0.2,1.1-0.8,1.2c-0.6,0.1-1.3,0.1-1.4-0.5c-0.2-0.9-0.5-2.1,0.4-2.7
		c1.9-1.5,1.6-3.7,1.9-5.8c0.1-0.7-0.3-1-1-1c-1.4,0-2.8-0.2-4.2-0.4c-1-0.1-1.4,0.3-1.2,1.3c0.2,1,0.5,1.9,0.4,2.9
		c-0.1,1,0.3,1.8,1,2.6c0.6,0.6,0.8,2.9,0.4,3.6c-0.2,0.4-0.5,0.3-0.8,0.3c-1-0.1-2.1-0.1-3.1-0.3c-1-0.2-1.2,0.4-1.4,1
		c-0.2,0.8-0.1,1.7-0.2,2.5c-0.2,1.3,0.5,1.6,1.6,1.9c1.8,0.4,3.6,0.5,5.4,0.5c0.5,0,0.8,0.2,1,0.6c0.6,1.4-0.2,3.6-1.6,4.3
		c-1,0.5-1.6,1.4-1.7,2.4c-0.3,3.2-1.1,6.2-2,9.3c-0.3,0.9-0.5,2-1.2,2.9c-0.7-1.1-0.7-2.3-1-3.4c-0.9-4.4-2.3-8.6-4-12.7
		c-1.3-3.2-3.4-5.8-6.2-7.9c-2.1-1.6-4.7-2.2-7-3.5c-1.1-0.6-2.3-1-3.4-1.6c-1.9-1.3-2-3.2-1.7-5.3c0.1-1.2,0.7-1.8,1.7-1.9
		c1.8-0.1,2.6-1,2.6-3c0-1.3,0-2.6,0.7-3.6c1.5-2.3,1.7-4.8,1.6-7.4c-0.1-0.8,0.1-1.6,0.5-2.3c1.5-2.5,1.8-5.3,1.7-8.2
		c0-0.5-0.3-0.9-0.6-1.1c-0.4-0.2-0.6,0.1-0.9,0.4c-1.2,1-2.5,1.6-4.1,1.5c-1.8-0.1-3.7,0-5.5,0c-1.6,0-3,0.6-3.8,2
		c-1.2,2.1-1.9,4.4-2.7,6.7c-0.4,1.1-0.1,2.4-0.9,3.5c-1.5,1.8-1.4,3.9-0.2,5.8c1.2,2,1,3.9,0.1,5.9c-1.5,3.3-3.8,5.7-6.9,7.5
		c-1.8,1-3.5,2.2-4.9,3.7c-0.9,0.9-0.9,1.7-0.4,2.8c0.5,0.9,1.1,1.8,1.3,2.8c1.1,6.4,2.8,12.7,3.8,19.2c0.4,2.7,1.2,5.3,1.3,8.1
		c0.1,2.1,0.2,4.1,0.6,6.2h48.2c0.2-0.5,0.4-0.8,1-0.7c1.3,0.1,2.6-0.2,3.9,0.2c0.4,0.1,1-0.1,1.4-0.1c2.7,0.1,5.5-0.3,8.1,0.6h8.6
		c0.5-0.5,1.1-0.4,1.7-0.4c4.1,0.1,7.9-1.1,11.8-2.1c2.2-0.6,4.5-1.1,6.5-2.2c0.2-0.1,0.5-0.1,0.5,0c0.1,1.2,1.4,1.4,2,1.9
		c2.7,2.3,7.5,2.8,9.8-0.8c0.2-0.3,0.4-0.5,0.7-0.6c1.5-0.3,2.9-0.7,4.5-0.7c4.7,0,9.2,1,13.8,1.6c5.6,0.8,11.2,0.8,16.8,0.9
		c3.8,0.1,7.5-0.2,11.2-0.8v-1.7c-1.8-0.1-3.6,0.3-5.3,0.6c-2.5,0.5-5,0.5-7.5,0.3c-2.6-0.2-5.1,0.2-7.6,0.1
		c-3.6-0.1-7-0.8-10.5-1.3c-4.5-0.8-9-1.6-13.7-0.9c-0.2,0-0.5,0.1-0.7,0.1c-0.6,0-0.8-0.5-0.9-0.8c-0.1-0.4,0.4-0.3,0.7-0.4
		c5.7-1.2,11.4-1.2,17.2-0.5c6.5,0.8,13.1,1.1,19.6,0.6c2.9-0.2,5.8-0.8,8.7-1.3v-0.5c-2.6,0-5.2,0.7-7.7,1c-2.7,0.3-5.3,0.5-8,0.4
		c-3.2-0.2-6.4,0-9.6-0.4c-3.3-0.4-6.6-0.8-10-0.9c-3.9-0.1-7.8-0.1-11.5,1.3c-0.2,0.1-0.4,0.1-0.6,0.1c-0.6-0.1-1.6,0-1.6-0.7
		c-0.1-0.6,0.8-0.3,1.3-0.3c2.7-0.5,5.4-1.1,8.1-1.8c3.6-0.8,7.3-1.3,11-0.9c2.5,0.3,5-0.1,7.5,0.3c6.5,1,13,1,19.5,0.5
		c0.5,0,1-0.3,1.5-0.2V159c-2.6,0.3-5.2,0.7-7.8,0.7c-4.7,0.1-9.4-0.5-14.1-0.9c-3.1-0.3-6.1-0.3-9.2-0.3c-4.2,0-8.3,0.7-12.3,1.9
		c-2.3,0.6-4.7,0.5-7,1.3c-0.3,0.1-0.6,0-0.7-0.3c-0.1-0.5,0.3-0.5,0.6-0.6c2.5-0.8,5-1.8,7.5-2.4c3.2-0.7,6.5-1.2,9.8-1.2
		c3.2-0.1,6.3,0.3,9.4,0.5c7.2,0.3,14.4,0.8,21.5-1c0.8-0.2,1.4-0.8,2.2-0.7v-0.7c-0.1,0-0.2-0.1-0.3-0.1c-4.3,2-9,2-13.7,2.3
		c-5.2,0.3-10.4-0.4-15.7-0.7c-4.8-0.3-9.5,0.1-14.2,1.2c-2.1,0.5-4.2,1.2-6.3,1.9c-0.5,0.2-1.1,0.2-1.3,1
		C203.2,159.9,203.9,159.6,204.3,159.4z M164.7,121.3c0.2-0.4,0.4-0.4,0.8-0.4c0.9,0.1,1.8,0.2,2.7,0.1c0.8-0.1,1,0.4,0.9,1.1
		c-0.2,1.3-0.4,2.6-1.8,3.3c-0.8,0.4-1.1,1-1.1,1.8c0,0.8-0.1,1.7,0.1,2.5c0.1,0.5-0.3,0.7-0.7,0.7c-0.5,0-0.3-0.5-0.3-0.7
		c0.2-0.9,0.3-1.9,0.6-2.8c0.2-0.8,0-1.4-0.6-1.9C164.7,124.4,164.3,122.1,164.7,121.3z M157.8,113.5c0-0.9,0.1-1.8,0.4-2.7
		c0.4,2.6-0.3,5.1,0.1,7.7c0.5,0.3,0.5,0.9,0.6,1.4c0.3,0.4,0.6,0.7,0.9,1.1c0.5,0.4,1,0.9,1,1.7c0.1,2.5,0.4,5.1,0.3,7.6
		c0,0.3,0.1,0.8-0.5,0.8c-0.6,0-0.4-0.5-0.4-0.8c0-2-0.1-4-0.1-6.1c0-0.8-0.2-1.6-0.5-2.3c-0.4-0.1-0.5-0.4-0.5-0.7
		c-0.2-0.3-0.3-0.6-0.5-1c-0.6-0.4-0.7-1-0.7-1.6C157.5,116.9,157.8,115.2,157.8,113.5z M148.3,129.7c0,0.5,0.3,1.3-0.3,1.3
		c-0.8,0-0.2-0.9-0.2-1.3c-0.1-1.2,0.1-2.4-1-3.3c-0.7-0.6-0.5-1.5-0.5-2.3c-0.1-0.9-0.1-1.8-0.4-2.8c1.4-0.2,2.7,0.3,4,0.2
		c0.3,0,0.5,0.2,0.5,0.5c0.1,1.3,0,2.5-0.3,3.8c-0.1,0.3-0.3,0.6-0.5,0.7C148.1,127.2,148.3,128.5,148.3,129.7z M197.9,163.2
		c-0.3,0.6-1,0.9-1.5,0.6c-2.6-1.4-5.6-1-8.4-1.4c-4.7-0.6-9.4,0.4-14,0.8c-3.6,0.3-7,1.4-10.6,1.6c-1.8,0.1-3.6,0.3-5.3-0.5
		c-0.4-0.2-0.7,0-1.3,0.3c3.1,1.3,6.1,1.3,9.1,0.7c3.2-0.7,6.5-0.9,9.8-1.4c2.8-0.4,5.6-0.9,8.4-0.9c3.6,0.1,7.2,0.1,10.8,0.9
		c0.3,0.1,0.5,0.2,0.9,0.4c-1.4,0.6-2.9,0.5-4.2,0.8c-3.6,1-7.2,1.6-10.9,2.2c-3.1,0.5-6.2,1-9.4,0.7c-0.8-0.1-1.3,0.5-2.1,0.4
		c-4.6-0.6-9.3-0.3-13.9-0.5c-0.4,0-0.9-0.2-1.3-0.3c-0.6-0.1-0.7-0.4-0.6-1c0.5-1.9,1-3.9,1.4-5.8c0.1-0.4,0.1-0.5,0.7-0.4
		c1.1,0.2,2,0.6,3.1,0.9c3.6,1.1,7.2,1,10.9,0.2c2.8-0.6,5.6-0.6,8.4-1.1c4.6-0.7,9.1-0.7,13.7-0.2c1.9,0.2,3.8,0.7,5.5,1.7
		C197.7,162.3,198.3,162.5,197.9,163.2z M193.3,159.8c-5.5-1.1-10.9-0.9-16.4,0.1c-3.8,0.6-7.6,0.9-11.3,1.4c-2.7,0.4-5.1-0.3-7.6-1
		c-0.3-0.1-0.7-0.2-1-0.2c-0.7,0-0.9-0.4-1-1.1c-0.4-1.8,0.3-3.3,0.7-4.8c0.2-0.9,0.8-1,1.4-0.7c4.6,1.7,9.4,0.7,14.1,0.8
		c2.9,0,5.7-0.5,8.6-0.5c2.7,0,5.2-0.7,7.8-0.6c2.9,0.2,5.6,0.8,8.3,1.8c2.1,0.8,3.2,2.5,3.9,4.5c0.2,0.4-0.1,0.7-0.4,0.9
		c-0.9-3.6-3.9-4.1-6.8-4.3c-2.8-0.2-5.7-0.1-8.5-0.2c-1.9-0.1-3.6,0.7-5.4,0.9c-2.5,0.2-5,0.5-7.6,0c-1.8-0.4-3.8-0.4-5.7-0.3
		c-1.9,0.1-3.6-0.6-5.4-1.1c-0.6-0.2-1-0.4-1.4,0.1c3.9,2,8.3,1.6,12.5,2.1c3.9,0.5,7.7,0.3,11.5-0.7c1.2-0.3,2.5-0.2,3.7-0.2
		c2.8,0.2,5.7,0,8.4,0.6c1.1,0.2,2.1,0.7,3,1.3c1.2,0.8,1.3,3.3,0.1,4.1c-0.2,0.2-0.4,0.2-0.6-0.1
		C197.2,160.6,195.3,160.2,193.3,159.8z M206.3,164.6c0.2,0.1,0.5,0.2,0.5,0.4c0.1,0.3-0.3,0.4-0.5,0.6c-2.4,1.6-5,1.1-7.6,0.4
		c-0.6-0.1-0.7-0.6-0.1-0.9c1.4-1,2.5-2.2,3.4-3.9C203.1,162.8,204.6,163.8,206.3,164.6z"/>
	<path fill="#FFFFFF" stroke="#767676" stroke-miterlimit="10" d="M47.5,166.7c0.5-3.7,1-7.5,1.6-11.2c0.4-2.9,0.7-5.9,1.3-8.8
		c0.8-4,1.6-8.1,3-11.9c0.6-1.7,1.4-3.3,2-5c0.5-1.2,1.7-1.6,2.8-2c3.1-1.1,6.3-1.5,9.2-3.1c0.3-0.2,0.6-0.3,0.9-0.5
		c1.9-0.9,2.9-2.3,2.9-4.5c0-2,0.1-4-1.1-5.8c-1.3-2-1.1-3.7,0.7-5.4c0.7-0.7,0.8-1.4,0.8-2.3c-0.1-3.5-1.6-6.5-3-9.6
		c-1.3-2.9,0.3-7.4,4.2-7.1c0.9,0.1,1.6-0.2,2.2-0.8c0.8-0.8,1.8-1.4,2.8-2c1.1-0.7,2.3-0.8,3.5-0.1c1.6,1,3.5,1.6,3.2,4
		c0,0.4,0.4,0.3,0.6,0.3c0.9,0.1,1.7-0.2,2.6-0.4c1.8-0.5,2.9,0.4,2.9,2.3c0.1,4.2-2.1,7.5-4.5,10.6c-1.1,1.4-1.4,3.1-1.8,4.7
		c-0.1,0.5,0.2,0.6,0.6,0.7c1.4,0.2,1.5,0.6,1,1.9c-0.8,2.1-2.1,4-3,6.1c-1.6,3.5,0.6,7.8,3.1,9.8c0.6,0.5,1.3,0.5,2,0.7
		c4.6,1,7.4,3.8,8.7,8.3c1.2,4.1,2.3,8.2,3.4,12.3c0.9,3.4,1.3,6.8,1.9,10.2c0.7,4,1.1,8.1,1.4,12.2c-18.7,0-37.4,0-56.2,0
		C47.3,169.1,47.3,167.9,47.5,166.7z"/>
	<path fill="#FFFFFF" stroke="#767676" stroke-miterlimit="10" d="M0.7,170.3c1.1-2.4,2.2-4.8,3.3-7.2c2.4-5.2,4.7-10.6,7-15.8
		c2.6-5.9,4.4-12.2,7.9-17.6c1.1-1.7,1.9-3.5,3.7-4.6c0.4-0.3,0.8-0.5,1.3-0.6c2.7-0.5,4.6-2,5.6-4.6c0.8-2,1-4.1,1.6-6.2
		c0.7-2.8,1.8-5.5,2.8-8.2c0.3-0.8,0.1-1.2-0.5-1.6c-2-1.4-3.8-3.1-5.7-4.7c-0.7-0.6-0.7-0.9,0.1-1.5c3.7-3.1,7.6-6,11-9.4
		c0.5-0.5,1-0.5,1.6-0.2c1.7,1,3.4,2,5.2,2.9c1.4,0.8,3.1,0.7,4.5,1.6c2.6,1.6,5.3,2.9,7.8,4.6c1.1,0.8,1.2,1.2,0.2,2.1
		c-1.8,1.7-3.6,3.4-5.5,5c-0.5,0.4-0.6,0.8-0.6,1.5c0.2,5.4,0.4,10.8,1.1,16.1c0.1,0.9,0,1.7-0.9,1.8c-0.7,0.1-1.3-0.5-1.4-1.3
		c-0.1-0.4-0.3-0.9-0.5-1.3c-1.3-1.9-1-3.8-0.9-6c0.2-2.9,0.5-5.8,0.3-8.8c-0.7,0.2-1.3,0.5-1.3,1.4c0,3.2,0,6.4-0.1,9.6
		c0,1,0.2,1.9,0.9,2.7c0.6,0.7,1.3,1.5,1,2.5c-0.6,2.5,0.8,4,2.8,5c1.2,0.6,1.1,1.4,0.9,2.4c-0.8,2.9-2,5.7-2.6,8.6
		c-0.9,4.3-1.7,8.6-2.3,12.9c-0.7,4.4-0.9,8.7-1.6,13.1c-0.1,0.7-0.1,1.4-0.1,2.2c-0.2,1.2-0.6,2.4-0.2,3.6
		C31.6,170.3,16.2,170.3,0.7,170.3z"/>
</g>
</svg>
